<?xml version="1.0" encoding="utf-8"?>
<!-- Generator: Adobe Illustrator 16.0.4, SVG Export Plug-In . SVG Version: 6.00 Build 0)  -->
<!DOCTYPE svg PUBLIC "-//W3C//DTD SVG 1.1//EN" "http://www.w3.org/Graphics/SVG/1.1/DTD/svg11.dtd" [
	<!ENTITY ns_extend "http://ns.adobe.com/Extensibility/1.0/">
	<!ENTITY ns_ai "http://ns.adobe.com/AdobeIllustrator/10.0/">
	<!ENTITY ns_graphs "http://ns.adobe.com/Graphs/1.0/">
	<!ENTITY ns_vars "http://ns.adobe.com/Variables/1.0/">
	<!ENTITY ns_imrep "http://ns.adobe.com/ImageReplacement/1.0/">
	<!ENTITY ns_sfw "http://ns.adobe.com/SaveForWeb/1.0/">
	<!ENTITY ns_custom "http://ns.adobe.com/GenericCustomNamespace/1.0/">
	<!ENTITY ns_adobe_xpath "http://ns.adobe.com/XPath/1.0/">
]>
<svg version="1.1" id="Layer_1" xmlns:x="&ns_extend;" xmlns:i="&ns_ai;" xmlns:graph="&ns_graphs;"
	 xmlns="http://www.w3.org/2000/svg" xmlns:xlink="http://www.w3.org/1999/xlink" x="0px" y="0px" width="417.007px"
	 height="114.966px" viewBox="0 0 417.007 114.966" enable-background="new 0 0 417.007 114.966" xml:space="preserve">
<metadata>
	<sfw  xmlns="&ns_sfw;">
		<slices></slices>
		<sliceSourceBounds  width="366" height="84.334" bottomLeftOrigin="true" y="-463.889" x="115"></sliceSourceBounds>
	</sfw>
</metadata>
<g>
	<path fill="#222221" d="M313.528,79.833h-1.002v2.885c0,1.268-0.647,3.291-1.975,3.291c-1.033,0-1.033-1.08-1.033-2.287v-3.889
		h-0.998v5.01c0,1.166,0.586,2.164,1.795,2.164c1.563,0,2.006-1.211,2.184-1.781h0.027v1.619h1.002V79.833z M192.959,86.167
		c-1.138,0-1.712-1.061-1.712-2.828c0-1.758,0.574-2.834,1.712-2.834c1.149,0,1.738,1.076,1.738,2.834
		C194.697,85.106,194.108,86.167,192.959,86.167 M192.959,79.671c-2.065,0-2.86,1.633-2.86,3.68c0,2.051,0.795,3.656,2.86,3.656
		c2.076,0,2.885-1.605,2.885-3.656C195.844,81.304,195.035,79.671,192.959,79.671 M215.237,86.167c-1.135,0-1.709-1.061-1.709-2.828
		c0-1.758,0.574-2.834,1.709-2.834c1.152,0,1.738,1.076,1.738,2.834C216.976,85.106,216.39,86.167,215.237,86.167 M215.237,79.671
		c-2.062,0-2.856,1.633-2.856,3.68c0,2.051,0.795,3.656,2.856,3.656c2.078,0,2.889-1.605,2.889-3.656
		C218.126,81.304,217.315,79.671,215.237,79.671 M226.44,79.671c-1.254,0-1.817,1.072-1.992,1.602h-0.031
		c-0.07-0.926-0.589-1.602-1.766-1.602c-1.399,0-1.799,1.205-1.963,1.781h-0.026v-1.619h-1.003v7.012h1.003v-2.891
		c0-1.264,0.59-3.285,1.754-3.285c1.03,0,1.03,1.076,1.03,2.287v3.889h1.002v-2.891c0-1.252,0.574-3.285,1.752-3.285
		c1.035,0,1.035,1.064,1.035,2.287v3.889h0.998v-5.01C228.233,80.669,227.631,79.671,226.44,79.671 M237.062,79.671
		c-1.252,0-1.811,1.072-1.988,1.602h-0.028c-0.073-0.926-0.591-1.602-1.769-1.602c-1.4,0-1.799,1.205-1.961,1.781h-0.03v-1.619
		h-1.001v7.012h1.001v-2.891c0-1.264,0.591-3.285,1.755-3.285c1.033,0,1.033,1.076,1.033,2.287v3.889h1v-2.891
		c0-1.252,0.574-3.285,1.755-3.285c1.03,0,1.03,1.064,1.03,2.287v3.889h1.002v-5.01C238.86,80.669,238.257,79.671,237.062,79.671
		 M241.673,81.835c0.09-0.473,0.428-1.33,1.475-1.33c1.02,0,1.343,0.857,1.343,1.33H241.673z M243.192,79.671
		c-1.871,0-2.738,1.336-2.738,3.428c0,2.596,1.251,3.908,3.42,3.908c0.646,0,1.177-0.074,1.605-0.209v-0.822
		c-0.326,0.074-0.604,0.191-1.387,0.191c-2.021,0-2.492-2.021-2.492-3.082v-0.416h4.037v-0.332
		C245.638,80.802,244.843,79.671,243.192,79.671 M250.545,79.671c-1.608,0-2.137,1.043-2.341,1.516h-0.03v-1.354h-1.001v7.012h1.001
		v-2.902c0-1.887,0.782-3.199,2.371-3.199V79.671z M253.877,79.671c-2.017,0-2.858,1.396-2.858,3.504
		c0,2.535,1.369,3.832,3.61,3.832c0.647,0,1.015-0.061,1.46-0.191v-0.795c-0.386,0.131-0.887,0.146-1.133,0.146
		c-2.332,0-2.789-1.871-2.789-3.211c0-1.064,0.396-2.451,1.668-2.451c0.941,0,1.251,0.709,1.251,1.459h1.194
		C256.28,80.845,255.751,79.671,253.877,79.671 M258.253,81.835c0.09-0.473,0.428-1.33,1.477-1.33c1.016,0,1.34,0.857,1.34,1.33
		H258.253z M259.771,79.671c-1.873,0-2.74,1.336-2.74,3.428c0,2.596,1.251,3.908,3.42,3.908c0.65,0,1.178-0.074,1.605-0.209v-0.822
		c-0.322,0.074-0.604,0.191-1.384,0.191c-2.021,0-2.491-2.021-2.491-3.082v-0.416h4.036v-0.332
		C262.217,80.802,261.422,79.671,259.771,79.671 M268.849,86.167c-0.516,0-0.988-0.352-0.988-1.016c0-1.197,1.564-1.49,2.303-1.49
		h0.589c0,0.838-0.088,1.002-0.269,1.418C270.19,85.755,269.481,86.167,268.849,86.167 M269.394,79.671
		c-1.914,0-2.504,1.072-2.52,1.957h1.12c0.073-0.549,0.296-1.123,1.431-1.123c0.53,0,1.121,0.191,1.284,0.975
		c0.043,0.236,0.043,1.002,0.043,1.342c-0.233,0.045-0.444,0.045-0.692,0.045c-1.226,0-3.35,0.545-3.35,2.18
		c0,1.256,0.738,1.961,1.889,1.961c1.281,0,1.976-0.75,2.153-1.088h0.03v0.926h0.971v-4.922
		C271.753,81.04,271.573,79.671,269.394,79.671 M277.024,79.671c-1.559,0-2.002,1.205-2.193,1.781h-0.03v-1.619h-1v7.012h1v-2.891
		c0-1.264,0.665-3.285,1.989-3.285c1.035,0,1.035,1.076,1.035,2.287v3.889h1.001v-5.01
		C278.826,80.669,278.222,79.671,277.024,79.671 M297.938,79.671c-1.562,0-2.004,1.205-2.195,1.781h-0.031v-1.619h-1.001v7.012
		h1.001v-2.891c0-1.264,0.665-3.285,1.988-3.285c1.033,0,1.033,1.076,1.033,2.287v3.889h1.004v-5.01
		C299.737,80.669,299.134,79.671,297.938,79.671 M317.45,79.671c-1.562,0-2.403,0.717-2.403,1.854c0,1.15,0.944,1.533,1.591,1.9
		l0.637,0.342c0.409,0.236,1.265,0.541,1.265,1.266c0,0.812-0.735,1.135-1.71,1.135c-0.795,0-1.635-0.309-1.811-0.371v0.916
		c0.28,0.086,1.002,0.295,1.914,0.295c1.64,0,2.609-0.721,2.609-2.123c0-1.207-0.899-1.623-1.635-2.002l-0.592-0.355
		c-0.559-0.297-1.267-0.529-1.267-1.104c0-0.506,0.558-0.918,1.414-0.918c0.709,0,1.402,0.238,1.637,0.328v-0.928
		C318.775,79.829,318.202,79.671,317.45,79.671 M328.793,79.671c-1.606,0-2.135,1.043-2.343,1.516h-0.028v-1.354h-0.998v7.012h0.998
		v-2.902c0-1.887,0.783-3.199,2.371-3.199v-0.609l2.569,6.711l-0.989,2.844h1.033l3.388-9.855h-1.077l-1.887,5.51h-0.028
		l-2.051-5.51h-0.958V79.671z M322.297,77.563l-0.998,0.631v1.639h-1.153v0.836h1.153v4.523c0,1.256,0.529,1.814,1.939,1.814
		c0.295,0,0.591-0.029,0.887-0.074v-0.896c-0.223,0.074-0.355,0.131-0.679,0.131c-1.032,0-1.149-0.721-1.149-1.178v-4.32h1.887
		v-0.836h-1.887V77.563z M282.965,86.167c-1.323,0-1.457-1.68-1.457-2.58c0-1.488,0.293-3.082,1.489-3.082
		c1.061,0,1.619,1.297,1.619,2.861C284.616,84.573,284.118,86.167,282.965,86.167 M285.618,76.679h-1.002v4.299h-0.027
		c-0.178-0.5-0.619-1.307-1.845-1.307c-1.724,0-2.388,1.838-2.388,3.725c0,2.227,0.709,3.611,2.406,3.611
		c1.117,0,1.678-0.855,1.826-1.354h0.027v1.191h1.002V76.679z M292.485,76.679h-1.147v10.166h1.147V76.679z M303.878,86.167
		c-1.326,0-1.461-1.68-1.461-2.58c0-1.488,0.296-3.082,1.489-3.082c1.065,0,1.622,1.297,1.622,2.861
		C305.528,84.573,305.026,86.167,303.878,86.167 M306.526,76.679h-0.998v4.299h-0.027c-0.182-0.5-0.619-1.307-1.843-1.307
		c-1.724,0-2.388,1.838-2.388,3.725c0,2.227,0.705,3.611,2.4,3.611c1.12,0,1.68-0.855,1.83-1.354h0.027v1.191h0.998V76.679z
		 M200.103,76.634c-1.752,0-2.297,1.072-2.297,2.225v0.975h-1.179v0.836h1.179v6.176h1.002v-6.176h2.018v-0.836h-2.018v-0.77
		c0-0.945,0.308-1.59,1.473-1.59c0.428,0,0.752,0.102,1.017,0.191v-0.902C200.972,76.69,200.605,76.634,200.103,76.634
		 M208.666,76.515c-2.919,0-3.831,2.43-3.831,5.055c0,2.475,0.823,5.438,3.904,5.438c1.521,0,2.271-0.428,2.697-0.607v-1.191
		c-0.309,0.238-1.133,0.842-2.416,0.842c-2.506,0-2.935-2.729-2.935-4.422c0-1.945,0.429-4.154,2.58-4.154
		c1.194,0,1.858,0.836,1.858,1.973h1.295C211.819,77.796,210.7,76.515,208.666,76.515"/>
	<path fill="#222221" d="M287.64,68.528h-4.479v1h4.479V68.528z M209.139,65.683h-1.001v2.887c0,1.268-0.65,3.289-1.979,3.289
		c-1.031,0-1.031-1.076-1.031-2.287v-3.889h-1v5.01c0,1.166,0.59,2.164,1.795,2.164c1.564,0,2.005-1.205,2.186-1.781h0.029v1.619
		h1.001V65.683z M261.819,65.683h-1v7.012h1V65.683z M199.751,72.017c-1.135,0-1.71-1.059-1.71-2.828
		c0-1.758,0.575-2.828,1.71-2.828c1.15,0,1.739,1.07,1.739,2.828C201.49,70.958,200.901,72.017,199.751,72.017 M199.751,65.519
		c-2.063,0-2.858,1.637-2.858,3.686c0,2.047,0.795,3.652,2.858,3.652c2.079,0,2.887-1.605,2.887-3.652
		C202.638,67.155,201.83,65.519,199.751,65.519 M223.694,67.688c0.092-0.473,0.43-1.328,1.477-1.328
		c1.018,0,1.344,0.855,1.344,1.328H223.694z M225.214,65.519c-1.871,0-2.739,1.344-2.739,3.434c0,2.598,1.251,3.904,3.421,3.904
		c0.647,0,1.176-0.072,1.602-0.207v-0.822c-0.323,0.076-0.602,0.189-1.383,0.189c-2.021,0-2.491-2.018-2.491-3.076v-0.416h4.036
		v-0.338C227.659,66.653,226.864,65.519,225.214,65.519 M232.567,65.519c-1.606,0-2.137,1.045-2.342,1.518h-0.029v-1.354h-1.002
		v7.012h1.002v-2.902c0-1.887,0.781-3.195,2.371-3.195V65.519z M236.769,65.519c-1.564,0-2.005,1.207-2.197,1.783h-0.027v-1.619
		h-1.003v7.012h1.003v-2.887c0-1.266,0.66-3.283,1.988-3.283c1.031,0,1.031,1.07,1.031,2.281v3.889h1.004v-5.01
		C238.567,66.524,237.963,65.519,236.769,65.519 M259.757,65.519c-1.607,0-2.139,1.045-2.344,1.518h-0.028v-1.354h-1.001v7.012
		h1.001v-2.902c0-1.887,0.778-3.195,2.372-3.195V65.519z M266.344,65.519c-2.019,0-2.858,1.4-2.858,3.512
		c0,2.529,1.371,3.826,3.61,3.826c0.649,0,1.017-0.057,1.459-0.186V71.87c-0.381,0.135-0.887,0.146-1.133,0.146
		c-2.329,0-2.788-1.871-2.788-3.211c0-1.059,0.396-2.445,1.667-2.445c0.944,0,1.254,0.705,1.254,1.459h1.19
		C268.745,66.698,268.216,65.519,266.344,65.519 M271.545,72.017c-0.515,0-0.987-0.35-0.987-1.014c0-1.195,1.562-1.492,2.299-1.492
		h0.59c0,0.842-0.088,1.006-0.264,1.418C272.886,71.604,272.18,72.017,271.545,72.017 M272.091,65.519
		c-1.916,0-2.503,1.078-2.52,1.963h1.121c0.073-0.549,0.293-1.121,1.428-1.121c0.531,0,1.121,0.191,1.283,0.971
		c0.043,0.234,0.043,1.006,0.043,1.344c-0.234,0.041-0.44,0.041-0.691,0.041c-1.225,0-3.344,0.547-3.344,2.18
		c0,1.258,0.736,1.961,1.885,1.961c1.281,0,1.975-0.75,2.15-1.088h0.03v0.926h0.97v-4.92
		C274.446,66.89,274.271,65.519,272.091,65.519 M279.725,65.519c-1.562,0-2.006,1.207-2.198,1.783h-0.027v-1.619h-0.998v7.012h0.998
		v-2.887c0-1.266,0.664-3.283,1.988-3.283c1.033,0,1.033,1.07,1.033,2.281v3.889h1v-5.01
		C281.521,66.524,280.919,65.519,279.725,65.519 M298.468,67.688c0.089-0.473,0.428-1.328,1.475-1.328
		c1.018,0,1.344,0.855,1.344,1.328H298.468z M299.985,65.519c-1.871,0-2.738,1.344-2.738,3.434c0,2.598,1.251,3.904,3.416,3.904
		c0.652,0,1.182-0.072,1.609-0.207v-0.822c-0.324,0.076-0.607,0.189-1.387,0.189c-2.018,0-2.492-2.018-2.492-3.076v-0.416h4.038
		v-0.338C302.432,66.653,301.641,65.519,299.985,65.519 M307.338,65.519c-1.604,0-2.136,1.045-2.341,1.518h-0.031v-1.354h-1v7.012h1
		v-2.902c0-1.887,0.783-3.195,2.372-3.195V65.519z M315.077,65.519c-1.254,0-1.812,1.078-1.989,1.609h-0.031
		c-0.073-0.93-0.589-1.609-1.765-1.609c-1.402,0-1.801,1.207-1.963,1.783h-0.03v-1.619H308.3v7.012h0.999v-2.887
		c0-1.266,0.591-3.283,1.758-3.283c1.03,0,1.03,1.07,1.03,2.281v3.889h1.001v-2.887c0-1.252,0.571-3.283,1.753-3.283
		c1.032,0,1.032,1.059,1.032,2.281v3.889h0.999v-5.01C316.872,66.524,316.274,65.519,315.077,65.519 M320.516,72.017
		c-0.518,0-0.988-0.35-0.988-1.014c0-1.195,1.562-1.492,2.301-1.492h0.592c0,0.842-0.09,1.006-0.271,1.418
		C321.856,71.604,321.149,72.017,320.516,72.017 M321.06,65.519c-1.917,0-2.503,1.078-2.519,1.963h1.119
		c0.073-0.549,0.293-1.121,1.43-1.121c0.53,0,1.121,0.191,1.284,0.971c0.046,0.234,0.046,1.006,0.046,1.344
		c-0.242,0.041-0.445,0.041-0.698,0.041c-1.222,0-3.341,0.547-3.341,2.18c0,1.258,0.733,1.961,1.883,1.961
		c1.284,0,1.976-0.75,2.156-1.088h0.022v0.926h0.976v-4.92C323.418,66.89,323.24,65.519,321.06,65.519 M328.696,65.519
		c-1.565,0-2.006,1.207-2.197,1.783h-0.032v-1.619h-0.999v7.012h0.999v-2.887c0-1.266,0.664-3.283,1.99-3.283
		c1.034,0,1.034,1.07,1.034,2.281v3.889h0.998v-5.01C330.489,66.524,329.887,65.519,328.696,65.519 M352.332,72.017
		c-0.518,0-0.988-0.35-0.988-1.014c0-1.195,1.562-1.492,2.301-1.492h0.587c0,0.842-0.087,1.006-0.266,1.418
		C353.673,71.604,352.964,72.017,352.332,72.017 M352.875,65.519c-1.916,0-2.502,1.078-2.52,1.963h1.121
		c0.073-0.549,0.295-1.121,1.429-1.121c0.531,0,1.122,0.191,1.283,0.971c0.043,0.234,0.043,1.006,0.043,1.344
		c-0.237,0.041-0.441,0.041-0.693,0.041c-1.223,0-3.345,0.547-3.345,2.18c0,1.258,0.737,1.961,1.887,1.961
		c1.281,0,1.976-0.75,2.151-1.088h0.033v0.926h0.969v-4.92C355.233,66.89,355.055,65.519,352.875,65.519 M364.046,65.519
		c-1.255,0-1.813,1.078-1.991,1.609h-0.029c-0.072-0.93-0.588-1.609-1.766-1.609c-1.403,0-1.801,1.207-1.962,1.783h-0.027v-1.619
		h-1.002v7.012h1.002v-2.887c0-1.266,0.586-3.283,1.753-3.283c1.03,0,1.03,1.07,1.03,2.281v3.889h1.001v-2.887
		c0-1.252,0.575-3.283,1.755-3.283c1.031,0,1.031,1.059,1.031,2.281v3.889h1.003v-5.01C365.844,66.524,365.24,65.519,364.046,65.519
		 M375.451,67.688c0.089-0.473,0.427-1.328,1.474-1.328c1.018,0,1.342,0.855,1.342,1.328H375.451z M376.971,65.519
		c-1.873,0-2.741,1.344-2.741,3.434c0,2.598,1.253,3.904,3.418,3.904c0.65,0,1.18-0.072,1.605-0.207v-0.822
		c-0.322,0.076-0.604,0.189-1.383,0.189c-2.021,0-2.493-2.018-2.493-3.076v-0.416h4.039v-0.338
		C379.416,66.653,378.622,65.519,376.971,65.519 M384.323,65.519c-1.605,0-2.14,1.045-2.343,1.518h-0.031v-1.354h-1.001v7.012h1.001
		v-2.902c0-1.887,0.78-3.195,2.374-3.195V65.519z M212.748,63.413l-1,0.633v1.637h-1.15v0.842h1.15v4.523
		c0,1.25,0.528,1.809,1.944,1.809c0.293,0,0.586-0.027,0.881-0.072v-0.896c-0.222,0.072-0.352,0.129-0.678,0.129
		c-1.031,0-1.147-0.721-1.147-1.176v-4.316h1.885v-0.842h-1.885V63.413z M216.875,62.53h-1v10.164h1v-2.887
		c0-1.266,0.661-3.283,1.989-3.283c1.031,0,1.031,1.07,1.031,2.281v3.889h1v-5.01c0-1.16-0.601-2.166-1.795-2.166
		c-1.564,0-2.006,1.207-2.197,1.783h-0.028V62.53z M245.536,68.601l1.488-5.025h0.032l1.485,5.025H245.536z M247.733,62.53h-1.402
		l-3.24,10.164h1.148l0.987-3.137h3.623l1.017,3.137h1.152L247.733,62.53z M261.983,62.53h-1.328v1.322h1.328V62.53z M344.682,62.53
		h-1.001v10.164h1.001v-2.887c0-1.266,0.664-3.283,1.988-3.283c1.034,0,1.034,1.07,1.034,2.281v3.889h1v-5.01
		c0-1.16-0.603-2.166-1.795-2.166c-1.563,0-2.009,1.207-2.196,1.783h-0.031V62.53z M370.309,72.017
		c-1.476,0-1.592-1.736-1.592-2.547c0-1.387,0.485-3.109,1.74-3.109c1.164,0,1.55,1.531,1.55,2.873
		C372.007,70.636,371.562,72.017,370.309,72.017 M368.717,62.53h-0.999v7.277c0,0.914,0.114,3.049,2.621,3.049
		c2.006,0,2.814-1.572,2.814-3.594c0-1.811-0.573-3.744-2.506-3.744c-1.192,0-1.739,0.826-1.901,1.326h-0.029V62.53z
		 M254.745,62.485c-1.752,0-2.297,1.074-2.297,2.225v0.973h-1.18v0.842h1.18v6.17h0.998v-6.17h2.022v-0.842h-2.022v-0.766
		c0-0.945,0.312-1.594,1.477-1.594c0.426,0,0.752,0.102,1.018,0.191v-0.896C255.616,62.544,255.247,62.485,254.745,62.485
		 M193.268,62.366c-1.872,0-3.27,0.855-3.27,2.607c0,1.551,1.25,2.107,2.193,2.639l0.899,0.502c0.841,0.471,1.697,0.898,1.697,2.049
		c0,1.121-0.946,1.74-2.197,1.74c-1.24,0-2.254-0.443-2.475-0.529v1.174c0.265,0.061,1.249,0.309,2.341,0.309
		c1.903,0,3.581-0.732,3.581-2.857c0-1.605-1.119-2.225-2.152-2.799l-0.942-0.514c-0.796-0.445-1.695-0.918-1.695-1.814
		c0-0.945,0.751-1.549,1.916-1.549c1.091,0,1.976,0.338,2.226,0.439v-1.131C195.035,62.558,194.24,62.366,193.268,62.366
		 M292.635,62.366c-2.786,0-3.788,2.314-3.788,4.906c0,2.947,0.854,5.584,4.066,5.584c1.595,0,2.683-0.75,2.935-0.969v-4.936h-3.478
		v0.953h2.324v3.436c-0.174,0.162-0.836,0.562-1.869,0.562c-2.39,0-2.728-2.652-2.728-4.631c0-1.842,0.488-3.949,2.552-3.949
		c1.461,0,1.961,1.061,1.961,1.977h1.295C295.905,63.599,294.655,62.366,292.635,62.366 M339.465,62.366
		c-2.917,0-3.828,2.43-3.828,5.055c0,2.477,0.822,5.436,3.905,5.436c1.517,0,2.266-0.424,2.693-0.602v-1.193
		c-0.308,0.234-1.133,0.842-2.417,0.842c-2.506,0-2.932-2.73-2.932-4.422c0-1.943,0.426-4.158,2.578-4.158
		c1.196,0,1.858,0.84,1.858,1.977h1.296C342.619,63.646,341.5,62.366,339.465,62.366"/>
	<path fill="#222221" d="M252.079,50.191h-1.636v3.035c0,1.12-0.562,2.61-1.651,2.61c-0.574,0-0.721-0.206-0.721-1.637v-4.009
		h-1.634v4.863c0,1.607,0.867,2.312,1.897,2.312c1.283,0,1.86-0.941,2.08-1.473h0.028v1.31h1.636V50.191z M296.642,50.191h-1.635
		v3.035c0,1.12-0.561,2.61-1.65,2.61c-0.577,0-0.723-0.206-0.723-1.637v-4.009h-1.635v4.863c0,1.607,0.869,2.312,1.9,2.312
		c1.282,0,1.857-0.941,2.079-1.473h0.028v1.31h1.635V50.191z M310.671,50.191h-1.633v7.014h1.633V50.191z M357.148,50.191h-1.636
		v7.014h1.636V50.191z M199.338,56.219c-0.561,0-0.871-0.296-0.871-0.842c0-0.942,1.269-1.27,2.331-1.27
		C200.798,55.068,200.4,56.219,199.338,56.219 M199.811,50.028c-1.782,0-2.668,0.884-2.668,2.226h1.59
		c0-0.472,0.178-1.075,1.078-1.075c0.811,0,0.988,0.589,0.988,1.28v0.693c-0.974,0.031-3.921,0.047-3.921,2.373
		c0,1.137,0.883,1.842,2.063,1.842c1.119,0,1.608-0.516,1.828-0.97h0.03v0.807h1.559v-4.995
		C202.357,50.78,201.548,50.028,199.811,50.028 M211.303,50.028c-1.12,0-1.769,0.869-1.972,1.399h-0.028
		c-0.208-0.972-0.931-1.399-1.771-1.399c-1.148,0-1.652,0.797-1.844,1.239h-0.031v-1.076h-1.632v7.013h1.632v-3.034
		c0-1.106,0.473-2.608,1.42-2.608c0.574,0,0.721,0.204,0.721,1.635v4.008h1.635v-3.034c0-1.106,0.473-2.608,1.418-2.608
		c0.572,0,0.717,0.204,0.717,1.635v4.008h1.635v-4.861C213.202,50.737,212.337,50.028,211.303,50.028 M222.195,50.028
		c-1.12,0-1.771,0.869-1.976,1.399h-0.031c-0.204-0.972-0.927-1.399-1.766-1.399c-1.15,0-1.654,0.797-1.844,1.239h-0.031v-1.076
		h-1.633v7.013h1.633v-3.034c0-1.106,0.474-2.608,1.418-2.608c0.576,0,0.723,0.204,0.723,1.635v4.008h1.633v-3.034
		c0-1.106,0.471-2.608,1.416-2.608c0.575,0,0.723,0.204,0.723,1.635v4.008h1.633v-4.861
		C224.093,50.737,223.226,50.028,222.195,50.028 M226.938,52.284c0.044-0.414,0.371-1.211,1.329-1.211
		c1.019,0,1.237,0.768,1.237,1.211H226.938z M228.382,50.028c-2.12,0-3.006,1.341-3.006,3.3c0,2.579,1.269,4.039,3.539,4.039
		c0.75,0,1.369-0.089,1.957-0.279v-1.134c-0.293,0.103-0.824,0.266-1.338,0.266c-1.977,0-2.639-1.977-2.639-2.948h4.154v-0.398
		C231.05,51.161,230.167,50.028,228.382,50.028 M236.237,50.028c-1.414,0-1.886,0.781-2.271,1.457h-0.027v-1.294h-1.635v7.013h1.635
		v-3.082c0-1.692,0.65-2.384,2.299-2.384V50.028z M257.706,50.028c-1.412,0-1.887,0.781-2.268,1.457h-0.029v-1.294h-1.634v7.013
		h1.634v-3.082c0-1.692,0.646-2.384,2.297-2.384V50.028z M271.944,56.219c-0.559,0-0.871-0.296-0.871-0.842
		c0-0.942,1.27-1.27,2.33-1.27C273.403,55.068,273.005,56.219,271.944,56.219 M272.417,50.028c-1.785,0-2.67,0.884-2.67,2.226h1.592
		c0-0.472,0.177-1.075,1.078-1.075c0.811,0,0.986,0.589,0.986,1.28v0.693c-0.975,0.031-3.921,0.047-3.921,2.373
		c0,1.137,0.884,1.842,2.065,1.842c1.117,0,1.606-0.516,1.826-0.97h0.029v0.807h1.561v-4.995
		C274.964,50.78,274.156,50.028,272.417,50.028 M278.665,50.028c-1.521,0-2.519,0.752-2.519,2.062c0,1.856,3.021,2.551,3.021,3.377
		c0,0.558-0.812,0.634-1.211,0.634c-0.664,0-1.311-0.219-1.781-0.428v1.414c0.322,0.103,0.898,0.279,1.854,0.279
		c1.55,0,2.653-0.663,2.653-2.105c0-2.007-3.082-2.479-3.082-3.407c0-0.412,0.592-0.648,1.094-0.648
		c0.723,0,1.385,0.385,1.559,0.472v-1.385C279.917,50.205,279.357,50.028,278.665,50.028 M287.889,50.028
		c-1.519,0-2.519,0.752-2.519,2.062c0,1.856,3.02,2.551,3.02,3.377c0,0.558-0.811,0.634-1.209,0.634
		c-0.662,0-1.312-0.219-1.782-0.428v1.414c0.325,0.103,0.897,0.279,1.856,0.279c1.549,0,2.651-0.663,2.651-2.105
		c0-2.007-3.079-2.479-3.079-3.407c0-0.412,0.59-0.648,1.09-0.648c0.724,0,1.386,0.385,1.562,0.472v-1.385
		C289.14,50.205,288.581,50.028,287.889,50.028 M315.239,50.028c-2.283,0-3.212,1.533-3.212,3.361c0,2.845,1.649,3.978,3.759,3.978
		c0.734,0,1.428-0.133,2.044-0.325v-1c-0.339,0.118-0.706,0.178-1.177,0.178c-2.121,0-2.889-1.696-2.889-3.125
		c0-1.063,0.441-1.916,1.342-1.916c0.885,0,1.061,0.734,1.061,1.414h1.74C317.907,51.295,317.347,50.028,315.239,50.028
		 M327.221,52.284c0.043-0.414,0.367-1.211,1.325-1.211c1.018,0,1.238,0.768,1.238,1.211H327.221z M328.663,50.028
		c-2.121,0-3.004,1.341-3.004,3.3c0,2.579,1.266,4.039,3.534,4.039c0.754,0,1.371-0.089,1.96-0.279v-1.134
		c-0.293,0.103-0.823,0.266-1.341,0.266c-1.976,0-2.639-1.977-2.639-2.948h4.155v-0.398
		C331.329,51.161,330.444,50.028,328.663,50.028 M354.453,50.028c-1.415,0-1.889,0.781-2.271,1.457h-0.029v-1.294h-1.634v7.013
		h1.634v-3.082c0-1.692,0.648-2.384,2.301-2.384V50.028z M367.862,56.219c-0.561,0-0.872-0.296-0.872-0.842
		c0-0.942,1.271-1.27,2.332-1.27C369.322,55.068,368.923,56.219,367.862,56.219 M368.333,50.028c-1.783,0-2.667,0.884-2.667,2.226
		h1.59c0-0.472,0.178-1.075,1.077-1.075c0.814,0,0.989,0.589,0.989,1.28v0.693c-0.977,0.031-3.923,0.047-3.923,2.373
		c0,1.137,0.886,1.842,2.066,1.842c1.121,0,1.605-0.516,1.826-0.97h0.03v0.807h1.561v-4.995
		C370.883,50.78,370.074,50.028,368.333,50.028 M248.644,47.169h-1.809v1.634h1.809V47.169z M251.681,47.169h-1.809v1.634h1.809
		V47.169z M293.208,47.169h-1.81v1.634h1.81V47.169z M296.245,47.169h-1.814v1.634h1.814V47.169z M192.042,47.039h-1.634v10.165
		h1.634v-3.537h0.03l2.477,3.537h1.959l-2.829-3.978l2.593-3.035h-1.96l-2.27,2.682V47.039z M265.284,56.101
		c-1.035,0-1.211-1.297-1.211-2.403c0-1.165,0.133-2.402,1.211-2.402c0.943,0,1.238,1.106,1.238,2.402
		C266.522,54.816,266.197,56.101,265.284,56.101 M268.157,47.039h-1.635v3.99h-0.029c-0.207-0.351-0.707-1.001-1.756-1.001
		c-1.68,0-2.4,1.634-2.4,3.67c0,1.96,0.531,3.669,2.4,3.669c0.885,0,1.61-0.737,1.756-1.133h0.029v0.97h1.635V47.039z
		 M300.886,56.101c-1.032,0-1.211-1.297-1.211-2.403c0-1.165,0.136-2.402,1.211-2.402c0.943,0,1.238,1.106,1.238,2.402
		C302.124,54.816,301.798,56.101,300.886,56.101 M303.761,47.039h-1.637v3.99h-0.031c-0.206-0.351-0.705-1.001-1.752-1.001
		c-1.68,0-2.401,1.634-2.401,3.67c0,1.96,0.53,3.669,2.401,3.669c0.884,0,1.607-0.737,1.752-1.133h0.031v0.97h1.637V47.039z
		 M307.149,47.039h-1.635v10.166h1.635V47.039z M310.671,47.039h-1.633v1.62h1.633V47.039z M320.367,47.039h-1.635v10.165h1.635
		v-3.034c0-1.106,0.544-2.608,1.652-2.608c0.574,0,0.719,0.204,0.719,1.635v4.008h1.636v-4.861c0-1.605-0.866-2.314-1.9-2.314
		c-1.298,0-1.855,0.942-2.078,1.472h-0.028V47.039z M338.76,53.138l1.397-4.465h0.029l1.401,4.465H338.76z M341.222,47.039h-2.079
		l-3.477,10.165h1.797l0.885-2.755h3.651l0.885,2.755h1.798L341.222,47.039z M357.148,47.039h-1.636v1.62h1.636V47.039z
		 M360.566,47.039h-1.636v10.165h1.636v-3.537h0.031l2.474,3.537h1.961l-2.829-3.978l2.593-3.035h-1.96l-2.27,2.682V47.039z
		 M244.753,46.875c-1.916,0-2.871,0.868-2.871,2.354v0.961h-1.281v1.133h1.281v5.88h1.635v-5.88h2.064v-1.133h-2.064v-0.486
		c0-0.811,0.234-1.682,1.592-1.682c0.473,0,0.975,0.132,1.281,0.251v-1.235C246.005,46.935,245.316,46.875,244.753,46.875
		 M348.852,46.875c-1.916,0-2.869,0.868-2.869,2.354v0.961h-1.284v1.133h1.284v5.88h1.631v-5.88h2.063v-1.133h-2.063v-0.486
		c0-0.811,0.235-1.682,1.593-1.682c0.471,0,0.974,0.132,1.281,0.251v-1.235C350.104,46.935,349.412,46.875,348.852,46.875"/>
	<path fill="#222221" d="M302.979,37.038H297.5v1.591h5.479V37.038z M384.837,37.038h-5.48v1.591h5.48V37.038z M211.038,34.621
		h-1.635v3.035c0,1.121-0.561,2.608-1.65,2.608c-0.575,0-0.721-0.206-0.721-1.636v-4.008h-1.635v4.863
		c0,1.605,0.867,2.312,1.899,2.312c1.282,0,1.856-0.941,2.078-1.471h0.028v1.308h1.635V34.621z M270.854,34.621h-1.633v3.035
		c0,1.121-0.562,2.608-1.656,2.608c-0.574,0-0.721-0.206-0.721-1.636v-4.008h-1.635v4.863c0,1.605,0.869,2.312,1.898,2.312
		c1.283,0,1.86-0.941,2.08-1.471h0.033v1.308h1.633V34.621z M289.494,34.621h-1.636v7.013h1.636V34.621z M314.062,34.621h-1.637
		v3.035c0,1.121-0.561,2.608-1.65,2.608c-0.574,0-0.723-0.206-0.723-1.636v-4.008h-1.633v4.863c0,1.605,0.867,2.312,1.896,2.312
		c1.285,0,1.86-0.941,2.08-1.471h0.029v1.308h1.637V34.621z M200.016,36.714c0.044-0.411,0.368-1.211,1.326-1.211
		c1.017,0,1.239,0.767,1.239,1.211H200.016z M201.461,34.458c-2.123,0-3.006,1.342-3.006,3.3c0,2.582,1.268,4.039,3.538,4.039
		c0.751,0,1.369-0.089,1.957-0.278v-1.134c-0.295,0.103-0.824,0.265-1.34,0.265c-1.975,0-2.64-1.977-2.64-2.949h4.158v-0.398
		C204.128,35.591,203.243,34.458,201.461,34.458 M219.954,34.458c-1.518,0-2.518,0.75-2.518,2.063c0,1.856,3.021,2.549,3.021,3.376
		c0,0.559-0.81,0.632-1.21,0.632c-0.664,0-1.311-0.22-1.781-0.428v1.417c0.322,0.102,0.896,0.278,1.854,0.278
		c1.55,0,2.652-0.662,2.652-2.104c0-2.006-3.076-2.479-3.076-3.408c0-0.411,0.588-0.647,1.09-0.647c0.721,0,1.384,0.383,1.561,0.471
		v-1.384C221.207,34.636,220.647,34.458,219.954,34.458 M225.833,34.458c-2.282,0-3.211,1.531-3.211,3.361
		c0,2.845,1.65,3.978,3.758,3.978c0.738,0,1.432-0.134,2.05-0.323v-1.001c-0.342,0.118-0.709,0.177-1.18,0.177
		c-2.122,0-2.892-1.695-2.892-3.126c0-1.062,0.444-1.915,1.345-1.915c0.882,0,1.06,0.735,1.06,1.414h1.736
		C228.499,35.724,227.94,34.458,225.833,34.458 M237.813,36.714c0.045-0.411,0.371-1.211,1.328-1.211
		c1.019,0,1.238,0.767,1.238,1.211H237.813z M239.26,34.458c-2.124,0-3.004,1.342-3.004,3.3c0,2.582,1.263,4.039,3.535,4.039
		c0.749,0,1.368-0.089,1.959-0.278v-1.134c-0.296,0.103-0.825,0.265-1.341,0.265c-1.977,0-2.639-1.977-2.639-2.949h4.154v-0.398
		C241.925,35.591,241.041,34.458,239.26,34.458 M254.542,34.458c-1.298,0-1.859,0.942-2.079,1.475h-0.03v-1.312h-1.635v7.013h1.635
		V38.6c0-1.107,0.547-2.611,1.65-2.611c0.577,0,0.725,0.208,0.725,1.636v4.009h1.633v-4.862
		C256.44,35.166,255.569,34.458,254.542,34.458 M274.612,34.458c-1.52,0-2.518,0.75-2.518,2.063c0,1.856,3.02,2.549,3.02,3.376
		c0,0.559-0.812,0.632-1.211,0.632c-0.664,0-1.312-0.22-1.78-0.428v1.417c0.321,0.102,0.897,0.278,1.854,0.278
		c1.549,0,2.65-0.662,2.65-2.104c0-2.006-3.078-2.479-3.078-3.408c0-0.411,0.589-0.647,1.092-0.647c0.721,0,1.387,0.383,1.562,0.471
		v-1.384C275.864,34.636,275.306,34.458,274.612,34.458 M286.796,34.458c-1.414,0-1.886,0.781-2.266,1.459h-0.029v-1.296h-1.639
		v7.013h1.639v-3.081c0-1.693,0.646-2.387,2.295-2.387V34.458z M292.44,36.714c0.043-0.411,0.369-1.211,1.328-1.211
		c1.017,0,1.238,0.767,1.238,1.211H292.44z M293.886,34.458c-2.121,0-3.005,1.342-3.005,3.3c0,2.582,1.265,4.039,3.537,4.039
		c0.752,0,1.369-0.089,1.959-0.278v-1.134c-0.296,0.103-0.825,0.265-1.339,0.265c-1.977,0-2.641-1.977-2.641-2.949h4.156v-0.398
		C296.554,35.591,295.669,34.458,293.886,34.458 M319.53,34.458c-1.301,0-1.858,0.942-2.082,1.475h-0.028v-1.312h-1.634v7.013h1.634
		V38.6c0-1.107,0.545-2.611,1.651-2.611c0.575,0,0.724,0.208,0.724,1.636v4.009h1.634v-4.862
		C321.429,35.166,320.559,34.458,319.53,34.458 M345.375,40.649c-0.561,0-0.868-0.295-0.868-0.841c0-0.944,1.266-1.271,2.329-1.271
		C346.836,39.498,346.438,40.649,345.375,40.649 M345.848,34.458c-1.782,0-2.666,0.886-2.666,2.227h1.59
		c0-0.475,0.176-1.076,1.076-1.076c0.811,0,0.988,0.589,0.988,1.282v0.691c-0.974,0.031-3.922,0.046-3.922,2.375
		c0,1.133,0.887,1.84,2.063,1.84c1.122,0,1.608-0.515,1.828-0.972h0.03v0.809h1.559v-4.996
		C348.395,35.208,347.585,34.458,345.848,34.458 M353.808,34.458c-1.3,0-1.86,0.942-2.082,1.475h-0.029v-1.312h-1.635v7.013h1.635
		V38.6c0-1.107,0.547-2.611,1.65-2.611c0.575,0,0.727,0.208,0.727,1.636v4.009h1.63v-4.862
		C355.703,35.166,354.836,34.458,353.808,34.458 M365.622,36.714c0.044-0.411,0.367-1.211,1.326-1.211
		c1.019,0,1.241,0.767,1.241,1.211H365.622z M367.065,34.458c-2.118,0-3.003,1.342-3.003,3.3c0,2.582,1.265,4.039,3.538,4.039
		c0.749,0,1.365-0.089,1.956-0.278v-1.134c-0.293,0.103-0.823,0.265-1.339,0.265c-1.976,0-2.639-1.977-2.639-2.949h4.156v-0.398
		C369.735,35.591,368.852,34.458,367.065,34.458 M376.573,34.458c-1.519,0-2.519,0.75-2.519,2.063c0,1.856,3.021,2.549,3.021,3.376
		c0,0.559-0.81,0.632-1.211,0.632c-0.662,0-1.311-0.22-1.783-0.428v1.417c0.326,0.102,0.902,0.278,1.857,0.278
		c1.546,0,2.65-0.662,2.65-2.104c0-2.006-3.079-2.479-3.079-3.408c0-0.411,0.591-0.647,1.094-0.647c0.722,0,1.382,0.383,1.562,0.471
		v-1.384C377.827,34.636,377.267,34.458,376.573,34.458 M215.045,31.97l-1.635,0.986v1.664h-1.367v1.134h1.367v4.112
		c0,1.048,0.296,1.93,2.153,1.93c0.439,0,0.899-0.044,1.34-0.12v-1.147c-0.236,0.062-0.484,0.12-0.752,0.12
		c-1.004,0-1.106-0.737-1.106-1.579v-3.315h2.078v-1.134h-2.078V31.97z M280.021,31.97l-1.635,0.986v1.664h-1.372v1.134h1.372v4.112
		c0,1.048,0.297,1.93,2.149,1.93c0.442,0,0.899-0.044,1.342-0.12v-1.147c-0.235,0.062-0.489,0.12-0.754,0.12
		c-1.001,0-1.103-0.737-1.103-1.579v-3.315h2.076v-1.134h-2.076V31.97z M192.25,40.414v-7.725h0.794
		c2.139,0,2.567,1.355,2.567,3.832c0,3.125-0.826,3.893-2.567,3.893H192.25z M193.044,31.467h-2.517v10.166h2.517
		c2.111,0,4.467-0.411,4.467-5.112C197.511,32.881,196.304,31.467,193.044,31.467 M230.961,31.467h-1.632v10.166h1.632V38.6
		c0-1.107,0.548-2.611,1.651-2.611c0.576,0,0.726,0.208,0.726,1.636v4.009h1.634v-4.862c0-1.605-0.867-2.313-1.902-2.313
		c-1.295,0-1.855,0.942-2.078,1.475h-0.03V31.467z M249.028,31.467h-1.725v10.167h1.725V31.467z M260.67,40.529
		c-1.031,0-1.206-1.296-1.206-2.4c0-1.165,0.132-2.404,1.206-2.404c0.944,0,1.239,1.105,1.239,2.404
		C261.909,39.246,261.587,40.529,260.67,40.529 M263.543,31.467h-1.634v3.994h-0.031c-0.203-0.355-0.704-1.004-1.752-1.004
		c-1.682,0-2.402,1.636-2.402,3.671c0,1.958,0.533,3.668,2.402,3.668c0.885,0,1.607-0.737,1.752-1.133h0.031v0.97h1.634V31.467z
		 M289.494,31.467h-1.636v1.62h1.636V31.467z M325.659,40.529c-1.033,0-1.211-1.296-1.211-2.4c0-1.165,0.136-2.404,1.211-2.404
		c0.942,0,1.237,1.105,1.237,2.404C326.896,39.246,326.572,40.529,325.659,40.529 M328.528,31.467h-1.632v3.994h-0.03
		c-0.206-0.355-0.705-1.004-1.753-1.004c-1.682,0-2.4,1.636-2.4,3.671c0,1.958,0.53,3.668,2.4,3.668
		c0.885,0,1.608-0.737,1.753-1.133h0.03v0.97h1.632V31.467z M341.457,31.467h-1.724v4.214h-3.656v-4.214h-1.724v10.166h1.724v-4.643
		h3.656v4.643h1.724V31.467z M359.935,40.529c-1.032,0-1.208-1.296-1.208-2.4c0-1.165,0.13-2.404,1.208-2.404
		c0.945,0,1.238,1.105,1.238,2.404C361.173,39.246,360.851,40.529,359.935,40.529 M362.81,31.467h-1.637v3.994h-0.027
		c-0.21-0.355-0.706-1.004-1.759-1.004c-1.675,0-2.398,1.636-2.398,3.671c0,1.958,0.53,3.668,2.398,3.668
		c0.89,0,1.608-0.737,1.759-1.133h0.027v0.97h1.637V31.467z M372.726,31.467h-1.635v10.167h1.635V31.467z"/>
	<path fill="#CBD6E5" d="M97.551,18.52H18.837v79.026h79.081c4.551-12.822,6.116-26.871,6.16-39.934
		C104.124,43.415,101.902,30.216,97.551,18.52"/>
	<path fill="#003366" d="M176.997,97.546H94.118c4.487-12.658,6.111-26.508,6.171-39.938c0.061-13.88-2.114-27.508-6.527-39.088
		l83.235,0.006V97.546z"/>
	<path fill="#FFFFFF" d="M142.465,32.863c0-0.72,0.534-1.307,1.197-1.307h2.4c0.664,0,1.198,0.587,1.198,1.307v23.858
		c0,0.725-0.543,1.312-1.202,1.312h-2.378c-0.669,0-1.213-0.587-1.213-1.312v-9.825h-9.737v9.825c0,0.725-0.541,1.312-1.201,1.312
		h-2.395c-0.67,0-1.205-0.587-1.205-1.312V32.863c0-0.72,0.535-1.307,1.205-1.307h2.402c0.661,0,1.202,0.587,1.202,1.307v9.598
		h9.729L142.465,32.863z"/>
	<path fill="#FFFFFF" d="M171.153,32.842c0.593-0.721,0.683-1.315-0.125-1.311l-3.551,0.024c-0.66,0-1.299-0.159-2.364,1.005
		l-8.97,10.952l0.01-10.646c0-0.725-0.505-1.312-1.169-1.312h-2.445c-0.662,0-1.194,0.587-1.194,1.312l-0.009,23.854
		c0,0.719,0.541,1.308,1.203,1.308h2.454c0.664,0,1.16-0.589,1.16-1.308l-0.01-5.552l4.127-5.012l5.962,10.563
		c0.412,0.719,0.978,1.308,1.641,1.308h3.445c0.662,0,0.874-0.589,0.466-1.308l-8.264-14.522L171.153,32.842z"/>
	<path fill="#FFFFFF" d="M111.209,46.886h5.466l-2.717-9.249L111.209,46.886z M115.855,31.556c0.906,0,1.384,0.589,1.609,1.307
		l7.441,23.858c0.225,0.719-0.123,1.305-0.789,1.305h-2.383c-0.661,0-1.404-0.586-1.631-1.305l-1.589-5.375h-8.184l-1.585,5.375
		c-0.22,0.719-0.963,1.305-1.625,1.305h-2.384c-0.663,0-1.017-0.586-0.795-1.305l7.444-23.858c0.224-0.718,0.708-1.307,1.609-1.307
		H115.855z"/>
</g>
<rect x="60.39" y="27.425" transform="matrix(0.707 0.7072 -0.7072 0.707 49.6178 -33.9252)" fill="#FFFFFF" width="10.718" height="30.981"/>
<polygon fill="#CCCCCC" points="76.877,35.813 58.584,54.399 58.609,57.636 80.456,35.787 "/>
<polygon fill="#A9A9A9" points="51.006,50.079 51.006,50.079 58.556,57.627 58.556,53.378 54.842,50.059 "/>
<polygon fill="#D3D3D2" points="51.045,50.04 54.822,50.077 72.898,32.038 72.916,28.173 72.916,28.171 "/>
<rect x="76.525" y="40.45" transform="matrix(0.7072 0.707 -0.707 0.7072 58.2189 -43.7075)" fill="#FFFFFF" width="10.718" height="15.983"/>
<polygon fill="#CCCCCC" points="87.936,46.576 79.965,54.193 79.991,57.852 80.022,57.881 91.325,46.582 91.319,46.576 "/>
<polygon fill="#A9A9A9" points="72.452,50.297 72.444,50.304 80.019,57.88 80.017,54.01 75.783,50.221 "/>
<polygon fill="#D3D3D2" points="72.444,50.304 72.481,50.341 75.799,50.273 83.741,42.844 83.649,39.099 "/>
<path fill="#F1F1F1" d="M51.136,62.858l1.894-1.893L36.805,44.742l-1.892,1.896L51.136,62.858z M58.713,60.965l-7.577,7.575
	L29.229,46.637l7.576-7.579L58.713,60.965z"/>
<polygon fill="#FFFFFF" points="36.87,42.673 55.457,60.968 58.688,60.941 36.844,39.099 "/>
<polygon fill="#B1BAD2" points="54.436,60.993 51.116,64.71 51.136,68.54 58.688,60.993 "/>
<polygon fill="#7989B1" points="29.229,46.637 51.097,68.505 51.134,64.731 33.09,46.651 29.229,46.634 "/>
<path fill="#F1F1F1" d="M51.36,41.424l1.893-1.896l-5.615-5.617l-1.896,1.894L51.36,41.424z M58.938,39.529l-7.578,7.577
	L40.06,35.805l7.579-7.576L58.938,39.529z"/>
<polygon fill="#FFFFFF" points="47.633,28.234 47.633,31.616 55.25,39.583 58.908,39.557 58.939,39.529 47.639,28.228 "/>
<polygon fill="#B1BAD2" points="55.066,39.533 51.279,43.77 51.352,47.102 51.358,47.108 58.936,39.531 "/>
<polygon fill="#7989B1" points="40.156,35.904 51.358,47.108 51.398,47.069 51.329,43.751 43.902,35.809 "/>
<g>
	<path fill="#F1F1F1" d="M67.115,78.792c3.536,2.992,8.854,2.82,12.186-0.514c1.585-1.582,2.453-3.656,2.448-5.836
		c-0.004-2.039-0.761-5.213-4.342-8.764c-1.375-1.342-5.926-5.881-8.275-8.23l-1.894,1.894c2.356,2.357,6.942,6.932,8.29,8.249
		c2.317,2.295,3.538,4.662,3.54,6.859c0.006,1.479-0.57,2.842-1.661,3.934c-2.287,2.291-5.904,2.457-8.389,0.506L67.115,78.792z
		 M82.144,81.124c-5.082,5.078-13.35,5.078-18.431,0l-2.306-2.307l7.579-7.578l2.304,2.305c0.904,0.9,2.373,0.9,3.274,0
		c0.338-0.34,0.486-0.674,0.486-1.086c-0.002-1.055-0.878-2.551-2.341-4.002c-1.837-1.793-9.412-9.368-9.735-9.689l-1.421-1.425
		l7.579-7.577l1.422,1.423c0.077,0.079,7.834,7.836,9.671,9.626c4.571,4.537,5.538,8.82,5.543,11.621
		C85.775,75.69,84.487,78.776,82.144,81.124"/>
</g>
<g>
	<defs>
		<path id="SVGID_1_" d="M69.201,53.537l8.876,8.751l5.35,8.475l-2,6.469l-6.675,4.855l-8.059-1.885l-2.265-1.438l-2.917,0.154
			l2.201,2.201c5.082,5.082,13.35,5.082,18.432,0c2.344-2.344,3.631-5.43,3.624-8.686c-0.004-2.801-0.97-7.084-5.542-11.618
			c-1.837-1.793-9.596-9.55-9.672-9.629l-1.299-1.301L69.201,53.537z"/>
	</defs>
	<clipPath id="SVGID_2_">
		<use xlink:href="#SVGID_1_"  overflow="visible"/>
	</clipPath>
	
		<linearGradient id="SVGID_3_" gradientUnits="userSpaceOnUse" x1="-107.9365" y1="475.8555" x2="-106.9365" y2="475.8555" gradientTransform="matrix(-19.2631 19.2631 19.2631 19.2631 -11164.4414 -7026.748)">
		<stop  offset="0" style="stop-color:#FFFFFF"/>
		<stop  offset="1" style="stop-color:#8495BE"/>
	</linearGradient>
	<polygon clip-path="url(#SVGID_2_)" fill="url(#SVGID_3_)" points="103.933,68.044 73.643,98.333 43.354,68.044 73.643,37.755 	"/>
</g>
<g>
	<defs>
		<path id="SVGID_4_" d="M61.611,57.4l1.363,1.365c0.323,0.321,7.901,7.902,9.736,9.691c1.464,1.451,2.338,2.947,2.34,4.002
			c0.002,0.412-0.147,0.75-0.486,1.086c-0.902,0.902-2.371,0.902-3.275,0l-2.197-2.197l-0.056,3.77l2.882,2.059l3.499-1.031
			l2.387-2.691l-0.314-2.648l-3.032-4.957l-8.922-8.506L61.611,57.4z"/>
	</defs>
	<clipPath id="SVGID_5_">
		<use xlink:href="#SVGID_4_"  overflow="visible"/>
	</clipPath>
	
		<linearGradient id="SVGID_6_" gradientUnits="userSpaceOnUse" x1="-61.6602" y1="501.1309" x2="-60.6604" y2="501.1309" gradientTransform="matrix(7.3444 -7.3444 -7.3444 -7.3444 4198.7949 3299.1555)">
		<stop  offset="0" style="stop-color:#FFFFFF"/>
		<stop  offset="1" style="stop-color:#8495BE"/>
	</linearGradient>
	<polygon clip-path="url(#SVGID_5_)" fill="url(#SVGID_6_)" points="51.694,67.257 69.708,49.244 87.721,67.257 69.708,85.271 	"/>
</g>
<rect x="29.566" y="52.664" transform="matrix(-0.7071 -0.7071 0.7071 -0.7071 34.784 123.884)" fill="#132043" width="26.962" height="4.148"/>
<rect x="31.698" y="50.906" transform="matrix(-0.7071 -0.7071 0.7071 -0.7071 39.9329 121.7599)" fill="#7D8EBA" width="26.969" height="3.407"/>
<polygon fill="#375C92" points="32.048,46.673 36.714,46.536 36.853,41.871 "/>
<polygon fill="#375C92" points="55.923,60.941 51.257,61.079 51.12,65.745 "/>
<rect x="42.544" y="36.546" transform="matrix(-0.7071 -0.7071 0.7071 -0.7071 55.5645 100.2529)" fill="#132043" width="12" height="4.147"/>
<rect x="44.676" y="34.786" transform="matrix(-0.7071 -0.7071 0.7071 -0.7071 60.7171 98.1283)" fill="#7D8EBA" width="12.008" height="3.408"/>
<polygon fill="#375C92" points="42.835,35.842 47.502,35.706 47.639,31.039 "/>
<polygon fill="#375C92" points="56.131,39.531 51.466,39.669 51.328,44.334 "/>
<rect x="51.377" y="39.9" transform="matrix(0.7071 -0.7071 0.7071 0.7071 -10.6843 58.1546)" fill="#4B4B4A" width="26.962" height="4.15"/>
<rect x="53.5" y="42.406" transform="matrix(0.7071 -0.7071 0.7071 0.7071 -11.5697 60.29)" fill="#222221" width="26.974" height="3.408"/>
<polygon fill="#969695" points="72.923,30.975 73.062,35.64 77.728,35.779 "/>
<polygon fill="#222221" points="58.655,54.852 58.517,50.184 53.851,50.045 "/>
<rect x="74.978" y="45.398" transform="matrix(0.7071 -0.7071 0.7071 0.7071 -9.8505 71.1611)" fill="#4B4B4A" width="11.998" height="4.148"/>
<rect x="77.104" y="47.903" transform="matrix(0.7072 -0.707 0.707 0.7072 -10.7402 73.2793)" fill="#222221" width="12.008" height="3.409"/>
<polygon fill="#969695" points="83.754,41.762 83.892,46.427 88.559,46.566 "/>
<polygon fill="#222221" points="80.065,55.058 79.928,50.393 75.262,50.254 "/>
<g>
	<path fill="#003366" d="M80.788,79.663c-4.299,4.301-11.292,4.299-15.589,0l-0.885-0.883l4.738-4.736l0.882,0.885
		c1.689,1.688,4.433,1.688,6.117,0c0.715-0.713,1.077-1.557,1.075-2.512c-0.005-1.621-1.046-3.549-2.937-5.424
		c-1.859-1.814-9.729-9.684-9.729-9.684l4.735-4.737c0.003,0.002,7.823,7.823,9.692,9.644c4.075,4.043,4.932,7.77,4.938,10.186
		C83.831,75.124,82.752,77.7,80.788,79.663"/>
</g>
<g>
	<defs>
		<path id="SVGID_7_" d="M68.975,52.791l0.13,5.169l9.531,10.805l-0.228,7.229l-5.764,2.961l-3.481-2.158l-4.799,1.936l-0.048,0.049
			l0.884,0.883c4.296,4.301,11.288,4.301,15.589,0c1.963-1.963,3.041-4.539,3.034-7.262c-0.003-2.416-0.862-6.143-4.935-10.182
			c-1.869-1.823-9.69-9.646-9.692-9.646L68.975,52.791z"/>
	</defs>
	<clipPath id="SVGID_8_">
		<use xlink:href="#SVGID_7_"  overflow="visible"/>
	</clipPath>
	
		<linearGradient id="SVGID_9_" gradientUnits="userSpaceOnUse" x1="-109.8101" y1="474.8203" x2="-108.8101" y2="474.8203" gradientTransform="matrix(-16.7989 16.7989 16.7989 16.7989 -9741.0908 -6069.4663)">
		<stop  offset="0" style="stop-color:#8495BE"/>
		<stop  offset="0.0165" style="stop-color:#8495BE"/>
		<stop  offset="1" style="stop-color:#132043"/>
	</linearGradient>
	<polygon clip-path="url(#SVGID_8_)" fill="url(#SVGID_9_)" points="99.525,68.269 74.073,93.722 48.621,68.269 74.073,42.817 	"/>
</g>
<g>
	<defs>
		<path id="SVGID_10_" d="M64.461,57.31c0,0,7.868,7.869,9.729,9.683c1.89,1.875,2.933,3.799,2.937,5.424
			c0,0.951-0.362,1.799-1.075,2.512c-1.687,1.688-4.431,1.688-6.118,0l-0.883-0.879l-2.519,2.518l0.897,0.896
			c3.023,3.025,7.942,3.025,10.965,0c1.384-1.381,2.14-3.195,2.136-5.111c-0.004-1.695-0.606-4.322-3.472-7.162
			c-3.2-3.121-8.201-8.135-10.264-10.216L64.461,57.31z"/>
	</defs>
	<clipPath id="SVGID_11_">
		<use xlink:href="#SVGID_10_"  overflow="visible"/>
	</clipPath>
	
		<linearGradient id="SVGID_12_" gradientUnits="userSpaceOnUse" x1="-72.7656" y1="494.8916" x2="-71.7654" y2="494.8916" gradientTransform="matrix(10.9858 -10.9858 -10.9858 -10.9858 6301.2495 4712.5381)">
		<stop  offset="0" style="stop-color:#8495BE"/>
		<stop  offset="0.0165" style="stop-color:#8495BE"/>
		<stop  offset="1" style="stop-color:#132043"/>
	</linearGradient>
	<polygon clip-path="url(#SVGID_11_)" fill="url(#SVGID_12_)" points="51.704,67.731 72.498,46.937 93.292,67.731 72.498,88.526 	
		"/>
</g>
<g>
	<defs>
		<path id="SVGID_13_" d="M64.461,57.31c0,0,7.868,7.869,9.729,9.683c1.89,1.875,2.933,3.799,2.937,5.424
			c0,0.951-0.362,1.799-1.075,2.512c-1.687,1.688-4.431,1.688-6.118,0l-0.883-0.879l-4.735,4.73l0.884,0.883
			c4.296,4.301,11.288,4.301,15.589,0c1.963-1.963,3.041-4.539,3.034-7.262c-0.003-2.416-0.862-6.143-4.935-10.182
			c-1.869-1.823-9.69-9.646-9.692-9.646L64.461,57.31z"/>
	</defs>
	<clipPath id="SVGID_14_">
		<use xlink:href="#SVGID_13_"  overflow="visible"/>
	</clipPath>
	<path clip-path="url(#SVGID_14_)" fill="none" stroke="#222221" stroke-width="0.017" stroke-miterlimit="10" d="M78.396,77.464
		c-3.024,3.025-7.943,3.025-10.967,0l-1.19-1.189l3.332-3.334l1.191,1.189c1.185,1.191,3.115,1.191,4.303,0
		c0.501-0.502,0.755-1.092,0.753-1.766c-0.002-1.141-0.734-2.498-2.064-3.814c-1.308-1.275-10.361-10.33-10.361-10.33l3.256-3.408
		c-3.516-3.515,5.539,5.623,10.409,10.378c2.867,2.842,3.47,5.463,3.475,7.166C80.537,74.269,79.775,76.083,78.396,77.464z"/>
	<polygon clip-path="url(#SVGID_14_)" fill="#003366" points="64.25,78.788 68.915,78.649 69.053,73.981 	"/>
	<polygon clip-path="url(#SVGID_14_)" fill="#003366" points="64.428,57.332 69.093,57.194 69.232,52.526 	"/>
</g>
<g>
	<path fill="#EFEFEF" d="M40.771,66.034c-2.991,3.539-2.82,8.854,0.512,12.191c1.585,1.582,3.656,2.449,5.84,2.445
		c2.036-0.004,5.21-0.762,8.76-4.342c1.344-1.377,5.884-5.926,8.232-8.275l-1.896-1.896c-2.352,2.361-6.931,6.945-8.246,8.289
		c-2.297,2.32-4.665,3.539-6.859,3.543c-1.482,0.004-2.842-0.57-3.936-1.66c-2.287-2.291-2.456-5.904-0.505-8.391L40.771,66.034z
		 M38.441,81.062c-5.079-5.078-5.079-13.348,0-18.43l2.306-2.303l7.577,7.577l-2.303,2.307c-0.901,0.9-0.901,2.373,0,3.273
		c0.335,0.338,0.672,0.484,1.084,0.484c1.057,0,2.553-0.875,4.003-2.34c1.79-1.832,9.368-9.41,9.69-9.736l1.421-1.417l7.579,7.577
		l-1.422,1.42c-0.078,0.08-7.835,7.836-9.627,9.672c-4.533,4.574-8.82,5.541-11.62,5.545C43.873,84.698,40.788,83.411,38.441,81.062
		"/>
</g>
<g>
	<defs>
		<path id="SVGID_15_" d="M38.445,62.636c-5.084,5.08-5.084,13.348-0.002,18.426c2.343,2.346,5.43,3.637,8.687,3.629
			c2.801-0.008,7.085-0.971,11.618-5.545c1.792-1.836,9.552-9.592,9.628-9.674l1.3-1.297l-3.648-0.055l-8.754,8.879l-8.472,5.348
			l-6.472-1.996l-4.851-6.676l1.882-8.059l1.44-2.266l-0.154-2.921L38.445,62.636z"/>
	</defs>
	<clipPath id="SVGID_16_">
		<use xlink:href="#SVGID_15_"  overflow="visible"/>
	</clipPath>
	
		<linearGradient id="SVGID_17_" gradientUnits="userSpaceOnUse" x1="-102.0171" y1="495.4814" x2="-101.0171" y2="495.4814" gradientTransform="matrix(19.266 19.266 19.266 -19.266 -7540.6758 11572.2764)">
		<stop  offset="0" style="stop-color:#FFFFFF"/>
		<stop  offset="1" style="stop-color:#9A9A9A"/>
	</linearGradient>
	<polygon clip-path="url(#SVGID_16_)" fill="url(#SVGID_17_)" points="51.519,42.271 81.811,72.563 51.519,102.854 21.227,72.563 	
		"/>
</g>
<g>
	<defs>
		<path id="SVGID_18_" d="M60.799,61.894c-0.321,0.326-7.901,7.904-9.691,9.738c-1.451,1.463-2.947,2.34-4.003,2.34
			c-0.413,0.004-0.747-0.148-1.083-0.486c-0.903-0.9-0.903-2.373,0-3.273l2.2-2.199l-3.774-0.055l-2.057,2.883l1.029,3.498
			l2.69,2.391l2.65-0.318l4.955-3.035l8.51-8.918l-0.06-3.927L60.799,61.894z"/>
	</defs>
	<clipPath id="SVGID_19_">
		<use xlink:href="#SVGID_18_"  overflow="visible"/>
	</clipPath>
	
		<linearGradient id="SVGID_20_" gradientUnits="userSpaceOnUse" x1="-113.1455" y1="516.6572" x2="-112.1455" y2="516.6572" gradientTransform="matrix(7.3437 7.3437 7.3437 -7.3437 -2915.2119 4689.4199)">
		<stop  offset="0" style="stop-color:#FFFFFF"/>
		<stop  offset="1" style="stop-color:#9A9A9A"/>
	</linearGradient>
	<polygon clip-path="url(#SVGID_19_)" fill="url(#SVGID_20_)" points="52.308,50.614 70.324,68.63 52.308,86.647 34.292,68.63 	"/>
</g>
<g>
	<defs>
		<path id="SVGID_21_" d="M39.901,64.118C35.6,68.419,35.6,75.409,39.899,79.71c1.965,1.965,4.543,3.041,7.263,3.035
			c2.416-0.004,6.146-0.859,10.184-4.934c1.824-1.873,9.645-9.693,9.645-9.693l-4.735-4.736c0,0-7.871,7.871-9.685,9.729
			c-1.872,1.893-3.8,2.936-5.424,2.936c-0.954,0.004-1.799-0.355-2.512-1.072c-1.686-1.688-1.686-4.432,0-6.119l0.885-0.885
			l-4.737-4.734L39.901,64.118z"/>
	</defs>
	<clipPath id="SVGID_22_">
		<use xlink:href="#SVGID_21_"  overflow="visible"/>
	</clipPath>
	<polygon clip-path="url(#SVGID_22_)" fill="#969695" points="40.776,63.169 40.907,67.905 45.58,67.976 	"/>
	<polygon clip-path="url(#SVGID_22_)" fill="#969695" points="62.234,63.349 62.371,68.017 67.037,68.151 	"/>
</g>
<g>
	<defs>
		<path id="SVGID_23_" d="M52.579,73.103c-1.875,1.891-3.8,2.93-5.424,2.934c-0.952,0.004-1.797-0.355-2.511-1.074
			c-1.685-1.686-1.685-4.428,0.001-6.115l0.883-0.883l-0.05-0.055l-4.532-0.031c-1.781,2.979-1.415,6.893,1.147,9.449
			c1.381,1.385,3.196,2.146,5.109,2.139c1.7-0.006,4.326-0.604,7.163-3.473c2.265-2.316,5.591-5.549,7.999-7.957l-0.096-4.646
			C61.417,64.241,54.284,71.354,52.579,73.103"/>
	</defs>
	<clipPath id="SVGID_24_">
		<use xlink:href="#SVGID_23_"  overflow="visible"/>
	</clipPath>
	
		<linearGradient id="SVGID_25_" gradientUnits="userSpaceOnUse" x1="-81.5039" y1="489.7998" x2="-80.5044" y2="489.7998" gradientTransform="matrix(18.0141 -18.0141 -18.0141 -18.0141 10335.0049 7433.8125)">
		<stop  offset="0" style="stop-color:#9A9A9A"/>
		<stop  offset="0.0165" style="stop-color:#9A9A9A"/>
		<stop  offset="0.0786" style="stop-color:#8C8C8C"/>
		<stop  offset="0.2711" style="stop-color:#666666"/>
		<stop  offset="0.4623" style="stop-color:#484848"/>
		<stop  offset="0.6496" style="stop-color:#333332"/>
		<stop  offset="0.831" style="stop-color:#262625"/>
		<stop  offset="1" style="stop-color:#222221"/>
	</linearGradient>
	<polygon clip-path="url(#SVGID_24_)" fill="url(#SVGID_25_)" points="31.123,71.431 50.765,51.79 70.406,71.431 50.765,91.073 	"/>
</g>
<g>
	<path fill="#222221" d="M66.986,68.134l-4.637-0.117v0.027c-2.41,2.41-5.737,5.641-7.999,7.961
		c-2.842,2.865-5.463,3.469-7.163,3.473c-1.913,0.004-3.728-0.754-5.11-2.137c-2.562-2.564-2.929-6.477-1.147-9.455l-0.071-2.43
		l-0.076-2.213l-0.894,0.881c-4.298,4.295-4.298,11.289,0,15.586c1.966,1.965,4.542,3.045,7.262,3.035
		c2.418-0.004,6.145-0.863,10.186-4.934c1.602-1.645,7.853-7.9,9.333-9.377L66.986,68.134z"/>
</g>
<g>
	<defs>
		<path id="SVGID_26_" d="M89.621,18.52c4.325,11.369,6.582,24.867,6.519,39.068c-0.069,15.153-2.145,28.59-6.159,39.959h4.335
			c3.862-11.51,5.876-24.92,5.944-39.942c0.063-14.1-2.095-27.564-6.242-39.086H89.621z"/>
	</defs>
	<clipPath id="SVGID_27_">
		<use xlink:href="#SVGID_26_"  overflow="visible"/>
	</clipPath>
	<rect x="88.562" y="18.52" clip-path="url(#SVGID_27_)" fill="#222221" width="14.74" height="26.342"/>
	<rect x="88.562" y="71.204" clip-path="url(#SVGID_27_)" fill="#EDD10E" width="14.74" height="26.344"/>
	<rect x="88.562" y="44.862" clip-path="url(#SVGID_27_)" fill="#C10E1A" width="14.74" height="26.342"/>
</g>
<g>
</g>
<g>
</g>
<g>
</g>
<g>
</g>
<g>
</g>
<g>
</g>
</svg>
