<svg xmlns="http://www.w3.org/2000/svg" xmlns:xlink="http://www.w3.org/1999/xlink" version="1.1" width="841.92007" height="595.32" viewBox="0 0 841.92007 595.32">
<defs>
<clipPath id="clip_0">
<path transform="matrix(.75,0,0,.75,0,0)" d="M757.92 272.16H861.28V282.4H757.92Z" fill-rule="evenodd"/>
</clipPath>
<clipPath id="clip_1">
<path transform="matrix(.75,0,0,.75,0,0)" d="M395.84 316.64H500.48V326.88H395.84Z" fill-rule="evenodd"/>
</clipPath>
<clipPath id="clip_2">
<path transform="matrix(.75,0,0,.75,0,0)" d="M402.88 338.88H493.44V349.12H402.88Z" fill-rule="evenodd"/>
</clipPath>
<clipPath id="clip_3">
<path transform="matrix(.75,0,0,.75,0,0)" d="M395.52 361.12H500.8V371.36H395.52Z" fill-rule="evenodd"/>
</clipPath>
<clipPath id="clip_4">
<path transform="matrix(.75,0,0,.75,0,0)" d="M394.24 405.6H502.08V415.84H394.24Z" fill-rule="evenodd"/>
</clipPath>
<clipPath id="clip_5">
<path transform="matrix(.75,0,0,.75,0,0)" d="M787.2 427.84H832V438.08H787.2Z" fill-rule="evenodd"/>
</clipPath>
<clipPath id="clip_6">
<path transform="matrix(.75,0,0,.75,0,0)" d="M796.8 516.8H822.24V527.04H796.8Z" fill-rule="evenodd"/>
</clipPath>
<clipPath id="clip_7">
<path transform="matrix(.75,0,0,.75,0,0)" d="M796.8 539.04H822.24V549.28H796.8Z" fill-rule="evenodd"/>
</clipPath>
<clipPath id="clip_8">
<path transform="matrix(.75,0,0,.75,0,0)" d="M796.8 583.52H822.24V593.76H796.8Z" fill-rule="evenodd"/>
</clipPath>
<clipPath id="clip_9">
<path transform="matrix(.75,0,0,.75,0,0)" d="M796.8 605.76H822.24V616H796.8Z" fill-rule="evenodd"/>
</clipPath>
</defs>
<path transform="matrix(.75,0,0,.75,0,0)" d="M236 94.88H949.28V179.68H236Z" fill="#dce6f1"/>
<path transform="matrix(.75,0,0,.75,0,0)" d="M236 179.52H949.28V194.24H236Z" fill="#366092" fill-rule="evenodd"/>
<path transform="matrix(.75,0,0,.75,0,0)" d="M236 194.08H949.28V216.48H236Z" fill="#dce6f1" fill-rule="evenodd"/>
<path transform="matrix(.75,0,0,.75,0,0)" d="M236 216.32H668.96V238.72H236Z" fill="#dce6f1"/>
<path transform="matrix(.75,0,0,.75,0,0)" d="M236 238.56H319.52V438.88H236ZM575.84 238.56H668.96V438.88H575.84Z" fill="#dce6f1" fill-rule="evenodd"/>
<path transform="matrix(.75,0,0,.75,0,0)" d="M236 438.72H319.52V483.36H236ZM575.84 438.72H949.28V483.36H575.84Z" fill="#dce6f1" fill-rule="evenodd"/>
<path transform="matrix(.75,0,0,.75,0,0)" d="M236 483.2H319.52V594.56H236ZM575.84 483.2H668.96V594.56H575.84Z" fill="#dce6f1" fill-rule="evenodd"/>
<path transform="matrix(.75,0,0,.75,0,0)" d="M236 594.4H668.96V639.04H236Z" fill="#dce6f1"/>
<path transform="matrix(.75,0,0,.75,0,0)" d="M236 638.88H949.28V661.28H236Z" fill="#dce6f1"/>
<path transform="matrix(.75,0,0,.75,0,0)" d="M236 661.12H319.52V683.52H236Z" fill="#dce6f1"/>
<path transform="matrix(.75,0,0,.75,0,0)" d="M319.36 661.12H576V683.52H319.36Z" fill="#808080"/>
<path transform="matrix(.75,0,0,.75,0,0)" d="M575.84 661.12H668.96V683.52H575.84Z" fill="#dce6f1"/>
<path transform="matrix(.75,0,0,.75,0,0)" d="M668.8 661.12H949.28V683.52H668.8Z" fill="#808080"/>
<text xml:space="preserve" transform="matrix(.75 0 0 .75 0 0)" font-size="8.63967" font-family="F1" font-weight="bold"><tspan y="118.24" x="593.12 598.7012 603.98709 609.1 614.1974 618.69 623.8738 627.48489 632.49588 637.78176 640.0281 645.31399 650.0658">Sponsored by:</tspan></text>
<text xml:space="preserve" transform="matrix(.75 0 0 .75 0 0)" font-size="8.63967" font-family="F1" font-weight="bold"><tspan y="118.4" x="780 785.82168 793.2518 799.19998 801.4463 807.6434 813.8025 821.3284 823.8722 829.7472 832.33908">RMB NAMIBIA</tspan></text>
<text xml:space="preserve" transform="matrix(.75 0 0 .75 0 0)" font-size="10.0796" font-family="F1" font-weight="bold"><tspan y="190.56" x="422.24 427.96394 433.81013 436.61058 442.33448 448.18067 450.9811 456.82728 462.5512 468.27516 783.6659 789.38986 795.236 798.03646 803.8826 809.60659 812.407 818.2532 823.9771 829.70108">07/08/202408/08/2024</tspan></text>
<text xml:space="preserve" transform="matrix(.75 0 0 .75 0 0)" font-size="8.63967" font-family="F1" font-weight="bold"><tspan y="208.48" x="268 273.24369 275.8356 283.36158">TIME</tspan></text>
<text xml:space="preserve" transform="matrix(.75 0 0 .75 0 0)" font-size="8.63967" font-family="F1" font-weight="bold"><tspan y="208.64" x="415.52 421.74055 426.8535 434.37 439.65589 444.49409 449.59147 454.39643 456.64274 462.83985 467.67805 475.19456">Company Name</tspan></text>
<text xml:space="preserve" transform="matrix(.75 0 0 .75 0 0)" font-size="8.63967" font-family="F1" font-weight="bold"><tspan y="208.48" x="611.52 616.76376 619.3556 626.88156 632.1674">TIME </tspan></text>
<text xml:space="preserve" transform="matrix(.75 0 0 .75 0 0)" font-size="8.63967" font-family="F1" font-weight="bold"><tspan y="208.64" x="776.8 783.0205 788.1334 795.64999 800.93588 805.77407 810.87149 815.67648 817.9228 824.1199 828.95809 836.4746 841.41458">Company Name </tspan></text>
<text xml:space="preserve" transform="matrix(.75 0 0 .75 0 0)" font-size="8.63967" font-family="F1" font-weight="bold"><tspan y="230.72" x="596.32 601.2262 606.2372 611.3346 616.3456 621.2518 624.4484 629.4594 634.3656 639.50808 644.51907">09h00-09h15</tspan></text>
<text xml:space="preserve" transform="matrix(.75 0 0 .75 0 0)" font-size="8.63967" font-family="F2"><tspan y="230.72" x="779.84 785.8515 787.8386 792.3567 799.5276 804.2794 809.0844 814.0954 816.51449 822.0438 826.8488 831.3669 834.39077">Diamond Board</tspan></text>
<text xml:space="preserve" transform="matrix(.75 0 0 .75 0 0)" font-size="8.63967" font-family="F1" font-weight="bold"><tspan y="252.96" x="596.32 601.2262 606.2372 611.3346 616.3456 621.2518 624.4484 629.4594 634.3656 639.50808 644.51907">09h20-09h35</tspan></text>
<text xml:space="preserve" transform="matrix(.75 0 0 .75 0 0)" font-size="8.63967" font-family="F2"><tspan y="252.96" x="800.32 807.49099 812.6748">MTC</tspan></text>
<text xml:space="preserve" transform="matrix(.75 0 0 .75 0 0)" font-size="8.63967" font-family="F1" font-weight="bold"><tspan y="275.2" x="251.68 256.5862 261.5972 266.69459 271.70558 276.6118 279.80848 284.81947 289.72569 294.86814 299.87913">12h20-12h35</tspan></text>
<text xml:space="preserve" transform="matrix(.75 0 0 .75 0 0)" font-size="8.63967" font-family="F2"><tspan y="280.32" x="438.56 444.14964 451.32057 456.97767">RMB </tspan></text>
<text xml:space="preserve" transform="matrix(.75 0 0 .75 0 0)" font-size="8.63967" font-family="F3" font-weight="bold" font-style="italic"><tspan y="275.36" x="595.2 600.1062 605.1172 610.2146 615.2256 620.1318 623.3284 628.3394 633.2456 638.38809 643.39907">09h40-09h55</tspan></text>
<g clip-path="url(#clip_0)">
<text xml:space="preserve" transform="matrix(.75 0 0 .75 0 0)" font-size="8.63967" font-family="F2"><tspan y="280.64" x="757.92 763.9677 768.4858 775.6567 777.5888 782.5998 784.5319 788.9381 791.3572 796.8002 798.7323 803.25039 807.3635 809.95547 811.8876 816.2938 818.7129 824.89736 829.70236 834.5073 838.9135 843.6468 846.76437 849.2786 854.1168 857.1407">Namibia Plastic Converters</tspan></text>
</g>
<text xml:space="preserve" transform="matrix(.75 0 0 .75 0 0)" font-size="8.63967" font-family="F3" font-weight="bold" font-style="italic"><tspan y="297.6" x="249.76 254.66622 259.67723 264.7746 269.78559 274.6918 277.24827 279.49458 284.50556 289.41178 294.55424 299.46046">12h40: 12h55</tspan></text>
<text xml:space="preserve" transform="matrix(.75 0 0 .75 0 0)" font-size="8.63967" font-family="F2"><tspan y="297.6" x="387.52 393.2826 398.22257 403.02754 407.54566 409.92073 415.57783 420.31108 423.33497 427.6548 429.6419 434.04817 438.88636 442.99949 445.4186 449.93675 454.68855 459.69956 462.11869 467.2161 471.9679 476.9789 478.911 483.6628 488.501 493.23426 496.3518 498.2839 503.0357">Aqua Services and Engineering</tspan></text>
<text xml:space="preserve" transform="matrix(.75 0 0 .75 0 0)" font-size="8.63967" font-family="F1" font-weight="bold"><tspan y="297.44" x="595.2 600.1062 605.1172 610.2146 615.2256 620.1318 623.3284 625.57479 630.58578 635.49197 640.6344 645.5406">10h00- 10h15</tspan></text>
<text xml:space="preserve" transform="matrix(.75 0 0 .75 0 0)" font-size="8.63967" font-family="F2"><tspan y="297.44" x="744 751.17098 756.00918 760.8985 765.4775 767.99179 771.0156 775.8206 780.6256 783.0447 789.2291 793.7472 798.7582 800.6903 805.4236 809.53677 811.9558 816.4739 821.2789 826.2188 828.6379 834.40048 838.927 843.33328 848.17147 852.2846 856.51809 861.2699 864.29379 866.2259 871.0641">Megatron Cables and Accessories</tspan></text>
<text xml:space="preserve" transform="matrix(.75 0 0 .75 0 0)" font-size="8.63967" font-family="F3" font-weight="bold" font-style="italic"><tspan y="319.84" x="250.56 255.46622 260.4772 265.5746 270.58558 275.4918 278.68849 283.69947 288.60569 293.74815 298.75914">13h00-13h15</tspan></text>
<g clip-path="url(#clip_1)">
<text xml:space="preserve" transform="matrix(.75 0 0 .75 0 0)" font-size="8.63967" font-family="F2"><tspan y="325.12" x="395.84 400.75465 405.5596 410.36457 413.48213 417.59526 419.52735 424.4167 429.22166 431.81355 434.23268 440.28044 444.79856 451.96949 453.9566 458.89659 460.82868 465.3468 467.72187 470.59895 475.965 478.5569 482.8767 485.75379 488.1729 492.9247 495.5166">Foursight Namibia (Pty) Ltd</tspan></text>
</g>
<text xml:space="preserve" transform="matrix(.75 0 0 .75 0 0)" font-size="8.63967" font-family="F1" font-weight="bold"><tspan y="319.68" x="596.32 601.2262 606.2372 611.3346 616.3456 621.2518 624.4484 629.4594 634.3656 639.50808 644.51907">10h20-10h35</tspan></text>
<text xml:space="preserve" transform="matrix(.75 0 0 .75 0 0)" font-size="8.63967" font-family="F2"><tspan y="319.68" x="765.12 770.5367 775.05477 776.9869 781.72018 783.7073 788.6472 793.39907 795.8181 800.6231 805.4281 810.4391 812.3712 816.4844 819.0763 821.0084 825.4147 829.52786 832.0333 837.73556 840.1359 843.1598 845.1469 849.67349">Kaleido Logistics Africa</tspan></text>
<text xml:space="preserve" transform="matrix(.75 0 0 .75 0 0)" font-size="8.63967" font-family="F3" font-weight="bold" font-style="italic"><tspan y="342.08" x="250.56 255.46622 260.4772 265.5746 270.58558 275.4918 278.68849 283.69947 288.60569 293.74815 298.75914">13h20-13h35</tspan></text>
<g clip-path="url(#clip_2)">
<text xml:space="preserve" transform="matrix(.75 0 0 .75 0 0)" font-size="8.63967" font-family="F2"><tspan y="347.36" x="402.88 407.9845 412.78947 415.38136 419.89949 422.83699 424.8241 427.19917 430.07624 436.124 440.64213 447.81306 449.80018 454.74015 456.67225 461.0785 464.016 466.43513 471.8781 474.39237 478.7122 481.13133 485.88313 488.475">Zutari (Namibia) Pty Ltd</tspan></text>
</g>
<text xml:space="preserve" transform="matrix(.75 0 0 .75 0 0)" font-size="8.63967" font-family="F3" font-weight="bold" font-style="italic"><tspan y="342.08" x="595.2 600.1062 605.1172 610.2146 615.2256 620.1318 623.3284 628.3394 633.2456 638.38809 643.39907">11h40-11h55</tspan></text>
<text xml:space="preserve" transform="matrix(.75 0 0 .75 0 0)" font-size="8.63967" font-family="F2"><tspan y="342.08" x="781.76 784.00637 788.3262 794.73 797.14907 802.59207 805.6159 810.36776 815.3787 820.112 823.22958 825.74386 827.67599 832.51419">IJG Properties</tspan></text>
<text xml:space="preserve" transform="matrix(.75 0 0 .75 0 0)" font-size="8.63967" font-family="F3" font-weight="bold" font-style="italic"><tspan y="364.32" x="250.56 255.46622 260.4772 265.5746 270.58558 275.4918 278.68849 283.69947 288.60569 293.74815 298.75914">13h40-13h55</tspan></text>
<g clip-path="url(#clip_3)">
<text xml:space="preserve" transform="matrix(.75 0 0 .75 0 0)" font-size="8.63967" font-family="F2"><tspan y="369.6" x="395.52 401.2826 403.68299 406.70689 408.63899 413.16554 417.57179 419.9909 426.17536 430.98033 438.21943 445.45854 450.19178 453.30934 457.71559 459.7027 464.22084 466.03517 468.45429 473.89729 478.73548 483.48728 485.4744 489.88066 491.86778 496.601">Africa Commercial Vehicles</tspan></text>
</g>
<text xml:space="preserve" transform="matrix(.75 0 0 .75 0 0)" font-size="8.63967" font-family="F1" font-weight="bold"><tspan y="364.16" x="595.2 600.1062 605.1172 610.2146 615.2256 620.1318 622.3781 625.57479 630.58578 635.49197 640.6344 645.5406">12h00 -12h15</tspan></text>
<text xml:space="preserve" transform="matrix(.75 0 0 .75 0 0)" font-size="8.63967" font-family="F2"><tspan y="364.16" x="796.32 802.50448 808.1203 815.35098 820.15597">CYMot</tspan></text>
<text xml:space="preserve" transform="matrix(.75 0 0 .75 0 0)" font-size="8.63967" font-family="F1" font-weight="bold"><tspan y="386.4" x="251.68 256.5862 261.5972 266.69459 271.70558 276.6118 279.80848 284.81947 289.72569 294.86814 299.87913">14h00-14h15</tspan></text>
<text xml:space="preserve" transform="matrix(.75 0 0 .75 0 0)" font-size="8.63967" font-family="F2"><tspan y="391.84" x="423.04 428.62965 433.46784 438.21965 440.81153 443.6886 449.4512 452.32829 458.33979 461.45735 466.20915">Rent-A-Drum</tspan></text>
<text xml:space="preserve" transform="matrix(.75 0 0 .75 0 0)" font-size="8.63967" font-family="F1" font-weight="bold"><tspan y="386.4" x="596.32 601.2262 606.2372 611.3346 616.3456 621.2518 624.4484 629.4594 634.3656 639.50808 644.51907">12h20-12h35</tspan></text>
<text xml:space="preserve" transform="matrix(.75 0 0 .75 0 0)" font-size="8.63967" font-family="F2"><tspan y="386.4" x="785.92 791.0174 796.77999 802.9644 805.2971 807.7162 814.88717 816.8193 821.5711 823.5582 828.31008">EACI Mining</tspan></text>
<text xml:space="preserve" transform="matrix(.75 0 0 .75 0 0)" font-size="8.63967" font-family="F3" font-weight="bold" font-style="italic"><tspan y="408.8" x="250.56 255.46622 260.4772 265.5746 270.58558 275.4918 278.68849 283.69947 288.60569 293.74815 298.75914">14h20-14h35</tspan></text>
<g clip-path="url(#clip_4)">
<text xml:space="preserve" transform="matrix(.75 0 0 .75 0 0)" font-size="8.63967" font-family="F2"><tspan y="414.08" x="394.24 401.41093 405.92906 410.4556 415.39558 420.14738 424.6655 427.6894 429.6215 434.35475 436.77388 444.00456 448.7378 453.7488 455.6809 460.20747 464.6137 466.60084 468.9759 474.633 479.36625 482.39015 486.70997 488.64207 493.1686 497.90187">Macquarie Medical Services</tspan></text>
</g>
<text xml:space="preserve" transform="matrix(.75 0 0 .75 0 0)" font-size="8.63967" font-family="F3" font-weight="bold" font-style="italic"><tspan y="408.8" x="595.2 600.1062 605.1172 610.2146 615.2256 620.1318 623.3284 628.3394 633.2456 638.38809 643.39907">12h40-12h55</tspan></text>
<text xml:space="preserve" transform="matrix(.75 0 0 .75 0 0)" font-size="8.63967" font-family="F2"><tspan y="413.76" x="755.2 761.24777 765.7658 772.9367 774.86886 779.8798 781.81198 786.21817 788.6372 794.2943 796.8086 801.32669 806.0785 811.01846 815.5365 818.56039 823.5003 825.9194 828.1657 832.91757 837.151 839.6653 841.5974 844.18936 848.94119 851.5331 853.4652 858.21707">Namibia Standard Institution</tspan></text>
<text xml:space="preserve" transform="matrix(.75 0 0 .75 0 0)" font-size="8.63967" font-family="F1" font-weight="bold"><tspan y="430.88" x="251.68 256.5862 261.5972 266.69459 271.70558 276.6118 279.80848 284.81947 289.72569 294.86814 299.87913">14h40-14h55</tspan></text>
<text xml:space="preserve" transform="matrix(.75 0 0 .75 0 0)" font-size="8.63967" font-family="F2"><tspan y="436" x="424.16 429.9226 435.02003 441.20448 443.53718 445.9563 453.12724 455.05934 459.81114 461.79826 466.55006">AECI Mining</tspan></text>
<text xml:space="preserve" transform="matrix(.75 0 0 .75 0 0)" font-size="8.63967" font-family="F1" font-weight="bold"><tspan y="436" x="596 600.9062 605.9172 611.0146 616.0256 620.93179 624.1284 629.1394 634.0456 639.18807 644.19906">13h00-13h15</tspan></text>
<g clip-path="url(#clip_5)">
<text xml:space="preserve" transform="matrix(.75 0 0 .75 0 0)" font-size="8.63967" font-family="F2"><tspan y="436.32" x="787.2 793.9118 798.9228 801.4371 803.3692 807.51626 809.9353 815.6375 818.0379 821.15548 823.0876 827.49386">Optix Africa</tspan></text>
</g>
<text xml:space="preserve" transform="matrix(.75 0 0 .75 0 0)" font-size="8.63967" font-family="F1" font-weight="bold"><tspan y="453.12" x="250.56 255.46622 260.4772 265.5746 270.58558 275.4918 278.68849 280.93479 285.94578 290.852 295.99446 300.90068">15h00- 15h15</tspan></text>
<text xml:space="preserve" transform="matrix(.75 0 0 .75 0 0)" font-size="8.63967" font-family="F2"><tspan y="458.24" x="378.88 384.6426 386.5747 388.9751 391.999 396.8372 401.77717 404.1963 410.22889 412.4752 414.89433 420.311 425.11598 427.04808 431.9374 436.74238 439.33427 441.7534 443.9997 448.80467 452.9178 457.9288 462.66206 467.2411 469.75535 471.68745 476.43925 481.2442 483.66334 489.32044 494.05369 497.07759 501.3974 503.38453 507.91108 512.64437">Alfred H. Knight Inspection Services</tspan></text>
<text xml:space="preserve" transform="matrix(.75 0 0 .75 0 0)" font-size="8.63967" font-family="F1" font-weight="bold"><tspan y="458.24" x="596 600.9062 605.9172 611.0146 616.0256 620.93179 624.1284 629.1394 634.0456 639.18807 644.19906">13h20-13h35</tspan></text>
<text xml:space="preserve" transform="matrix(.75 0 0 .75 0 0)" font-size="8.63967" font-family="F3" font-weight="bold" font-style="italic"><tspan y="475.52" x="250.56 255.46622 260.4772 265.5746 270.58558 275.4918 278.68849 283.69947 288.60569 293.74815 298.75914">15h20-15h35</tspan></text>
<text xml:space="preserve" transform="matrix(.75 0 0 .75 0 0)" font-size="8.63967" font-family="F2"><tspan y="475.36" x="379.68 384.7845 387.80839 392.61335 397.4183 400.4422 404.96034 409.48689 411.86195 417.51905 421.75248 425.8656 428.4575 433.2957 440.4666 444.57975 446.99888 452.76148 457.56645 462.08457 464.01667 468.3365 470.85075 472.83787 477.2441 481.47755 483.8526 486.72969 492.17268 494.68693 499.00675 501.94425 504.3193 509.12428 511.71617">Tronrac Systems Analytics (Pty) Ltd</tspan></text>
<text xml:space="preserve" transform="matrix(.75 0 0 .75 0 0)" font-size="8.63967" font-family="F1" font-weight="bold"><tspan y="480.48" x="596 600.9062 605.9172 611.0146 616.0256 620.93179 624.1284 629.1394 634.0456 639.18807 644.19906">13h40-13h55</tspan></text>
<text xml:space="preserve" transform="matrix(.75 0 0 .75 0 0)" font-size="8.63967" font-family="F1" font-weight="bold"><tspan y="497.6" x="251.68 256.5862 261.5972 266.69459 271.70558 276.6118 279.80848 284.81947 289.72569 294.86814 299.87913">15h40-15h55</tspan></text>
<text xml:space="preserve" transform="matrix(.75 0 0 .75 0 0)" font-size="8.63967" font-family="F2"><tspan y="497.6" x="398.24 403.68299 405.61509 410.36689 415.3779 420.1297 422.11683 426.86863 429.28776 434.03956 438.8445 443.85554 445.78764 449.90077 452.49266 454.42475 458.9513 463.01194 465.43107 468.30815 473.75114 476.34303 480.66285 483.53993 485.95906 490.71086 493.30274">Pindulo Logistics (Pty) Ltd</tspan></text>
<text xml:space="preserve" transform="matrix(.75 0 0 .75 0 0)" font-size="8.63967" font-family="F1" font-weight="bold"><tspan y="497.6" x="596.32 601.2262 606.2372 611.3346 616.3456 621.2518 624.4484 629.4594 634.3656 639.50808 644.51907">14h00-14h15</tspan></text>
<text xml:space="preserve" transform="matrix(.75 0 0 .75 0 0)" font-size="8.63967" font-family="F2"><tspan y="502.72" x="796.48 802.5277 804.77407 810.21707 816.3512">NIPDB</tspan></text>
<text xml:space="preserve" transform="matrix(.75 0 0 .75 0 0)" font-size="8.63967" font-family="F1" font-weight="bold"><tspan y="519.84" x="251.68 256.5862 261.5972 266.69459 271.70558 276.6118 279.80848 284.81947 289.72569 294.86814 299.87913">16h00-16h15</tspan></text>
<text xml:space="preserve" transform="matrix(.75 0 0 .75 0 0)" font-size="8.63967" font-family="F2"><tspan y="525.28" x="405.28 412.45094 416.96907 421.8584 426.43745 428.9517 431.9756 436.78056 441.5855 444.00465 448.75645 453.5614 459.86839 462.24345 467.68644 472.43824 474.42536 476.9396 481.45774 486.34709">Magatron Low Voltage</tspan></text>
<text xml:space="preserve" transform="matrix(.75 0 0 .75 0 0)" font-size="8.63967" font-family="F3" font-weight="bold" font-style="italic"><tspan y="520" x="595.2 600.1062 605.1172 610.2146 615.2256 620.1318 623.3284 628.3394 633.2456 638.38809 643.39907">14h20-14h35</tspan></text>
<g clip-path="url(#clip_6)">
<text xml:space="preserve" transform="matrix(.75 0 0 .75 0 0)" font-size="8.63967" font-family="F2"><tspan y="525.28" x="796.8 802.8477 805.09408 810.53707 816.6712">NIPDB</tspan></text>
</g>
<text xml:space="preserve" transform="matrix(.75 0 0 .75 0 0)" font-size="8.63967" font-family="F1" font-weight="bold"><tspan y="542.08" x="251.68 256.5862 261.5972 266.69459 271.70558 276.6118 279.80848 284.81947 289.72569 294.86814 299.87913">16h20-16h35</tspan></text>
<text xml:space="preserve" transform="matrix(.75 0 0 .75 0 0)" font-size="8.63967" font-family="F2"><tspan y="542.24" x="397.12 403.16777 407.68589 414.8568 416.7889 421.79994 423.73204 428.13829 430.5574 435.6619 438.6858 443.20393 445.13603 449.88783 451.87495 456.62675 461.63777 464.01283 469.77543 474.52723 477.1191 481.92408 486.67588 489.79344 491.72554 494.23979">Namibia Training Authority</tspan></text>
<text xml:space="preserve" transform="matrix(.75 0 0 .75 0 0)" font-size="8.63967" font-family="F1" font-weight="bold"><tspan y="542.08" x="596.32 601.2262 606.2372 611.3346 616.3456 621.2518 624.4484 629.4594 634.3656 639.50808 644.51907">14h40-14h55</tspan></text>
<g clip-path="url(#clip_7)">
<text xml:space="preserve" transform="matrix(.75 0 0 .75 0 0)" font-size="8.63967" font-family="F2"><tspan y="547.52" x="796.8 802.8477 805.09408 810.53707 816.6712">NIPDB</tspan></text>
</g>
<text xml:space="preserve" transform="matrix(.75 0 0 .75 0 0)" font-size="8.63967" font-family="F1" font-weight="bold"><tspan y="564.32" x="251.68 256.5862 261.5972 266.69459 271.70558 276.6118 279.80848 284.81947 289.72569 294.86814 299.87913">16h40-16h55</tspan></text>
<text xml:space="preserve" transform="matrix(.75 0 0 .75 0 0)" font-size="8.63967" font-family="F2"><tspan y="569.76" x="364.64 371.81095 376.6159 381.62693 383.55903 385.49113 390.22438 392.6435 397.748 402.58619 404.51829 409.25154 413.77809 418.52989 425.76899 432.9399 437.74488 442.54985 444.48194 449.00849 453.41474 456.00663 457.93873 462.69053 467.49549 471.6086 474.11415 480.29859 485.10356 492.27449 497.2855 501.80363 506.55543 510.87525 513.2943 520.4653 525.56979">Mobile Telecommunications Company MTC</tspan></text>
<text xml:space="preserve" transform="matrix(.75 0 0 .75 0 0)" font-size="8.63967" font-family="F1" font-weight="bold"><tspan y="564.32" x="595.2 600.1062 605.1172 610.2146 615.2256 620.1318 623.3284 625.57479 630.58578 635.49197 640.6344 645.5406">15h00- 15h15</tspan></text>
<text xml:space="preserve" transform="matrix(.75 0 0 .75 0 0)" font-size="8.63967" font-family="F2"><tspan y="569.76" x="796.8 802.8477 805.09408 810.53707 816.6712">NIPDB</tspan></text>
<text xml:space="preserve" transform="matrix(.75 0 0 .75 0 0)" font-size="8.63967" font-family="F1" font-weight="bold"><tspan y="586.56" x="250.56 255.46622 260.4772 265.5746 270.58558 275.4918 277.7381 280.93479 285.94578 290.852 295.99446 300.90068">17h00 -17h15</tspan></text>
<text xml:space="preserve" transform="matrix(.75 0 0 .75 0 0)" font-size="8.63967" font-family="F2"><tspan y="592" x="428.8 434.84776 439.36589 446.5368 452.77613 457.29426 459.8085 464.6467">Namwater</tspan></text>
<text xml:space="preserve" transform="matrix(.75 0 0 .75 0 0)" font-size="8.63967" font-family="F3" font-weight="bold" font-style="italic"><tspan y="586.72" x="595.2 600.1062 605.1172 610.2146 615.2256 620.1318 623.3284 628.3394 633.2456 638.38809 643.39907">15h20-15h35</tspan></text>
<g clip-path="url(#clip_8)">
<text xml:space="preserve" transform="matrix(.75 0 0 .75 0 0)" font-size="8.63967" font-family="F2"><tspan y="592" x="796.8 802.8477 805.09408 810.53707 816.6712">NIPDB</tspan></text>
</g>
<text xml:space="preserve" transform="matrix(.75 0 0 .75 0 0)" font-size="8.63967" font-family="F1" font-weight="bold"><tspan y="608.8" x="250.56 255.46622 260.4772 265.5746 270.58558 275.4918 277.7381 280.93479 285.94578 290.852 295.99446 300.90068">17h20 -17h35</tspan></text>
<text xml:space="preserve" transform="matrix(.75 0 0 .75 0 0)" font-size="8.63967" font-family="F1" font-weight="bold"><tspan y="608.96" x="383.04 388.46934 392.1844 397.12437 401.617 406.55699 411.65437 414.6622 419.50044 422.50828 424.92738 430.11119 435.20857 439.7012 441.9475 448.16807 450.58717 455.7001 460.19276 465.13273 467.37904 470.2561 475.36906 478.98017 481.31288 484.3207 489.4181 494.4291 496.6754 502.88096 507.71919">Presentations Close for the Day</tspan></text>
<text xml:space="preserve" transform="matrix(.75 0 0 .75 0 0)" font-size="8.63967" font-family="F1" font-weight="bold"><tspan y="608.8" x="596.32 601.2262 606.2372 611.3346 616.3456 621.2518 624.4484 629.4594 634.3656 639.50808 644.51907">15h40-15h55</tspan></text>
<g clip-path="url(#clip_9)">
<text xml:space="preserve" transform="matrix(.75 0 0 .75 0 0)" font-size="8.63967" font-family="F2"><tspan y="614.24" x="796.8 802.8477 805.09408 810.53707 816.6712">NIPDB</tspan></text>
</g>
<text xml:space="preserve" transform="matrix(.75 0 0 .75 0 0)" font-size="8.63967" font-family="F1" font-weight="bold"><tspan y="631.04" x="596.32 601.2262 606.2372 611.3346 616.3456 621.2518 624.4484 629.4594 634.3656 639.50808 644.51907">16h00-16h15</tspan></text>
<text xml:space="preserve" transform="matrix(.75 0 0 .75 0 0)" font-size="8.63967" font-family="F2"><tspan y="636.48" x="796.8 802.8477 805.09408 810.53707 816.6712">NIPDB</tspan></text>
<text xml:space="preserve" transform="matrix(.75 0 0 .75 0 0)" font-size="8.63967" font-family="F1" font-weight="bold"><tspan y="653.44" x="765.44 770.8693 774.58438 779.5243 784.0169 788.95687 794.05429 797.0621 801.90029 804.9081 807.32717 812.5109 817.60836 822.10098 824.3473 830.5678 832.9869 838.0998 842.5924 847.53237">Presentations Closed</tspan></text>
<text xml:space="preserve" transform="matrix(.75 0 0 .75 0 0)" font-size="8.63967" font-family="F1" font-weight="bold"><tspan y="117.76" x="299.2 304.78123 311.0018 316.43113 321.9605 326.84565 329.43757 334.72346 340.54508 342.5322 348.1134 350.3597 355.78904 360.80006 366.84785 372.09153 377.2424 383.98133 389.80296 397.32893 399.48884 404.91816 410.73979 416.02568 421.55506 426.91166 433.10877 438.35246 444.5116 449.75529 452.3472 458.99974 465.30668 467.55299 469.7129 475.2941 480.6507 486.2319 491.8131 494.40504 501.14396 507.34107">SUPPLIER'S PLATFORM PRESENTATION  SESSIONS</tspan></text>
<text xml:space="preserve" transform="matrix(.75 0 0 .75 0 0)" font-size="8.63967" font-family="F1" font-weight="bold"><tspan y="148.96" x="480 486.22056 489.9356 494.87559 499.7138 502.72166 507.66163 509.90794 514.74618 516.9925 521.8987 526.90969 529.156 536.67257 539.0307 544.1281 546.37448 550.86709 555.70529 558.0634 563.0744 567.4997 569.74606 575.0319 577.451 580.4588 585.29708 590.3945 592.79067 595.037 599.8752 604.9726 610.2585 612.5048 614.863 619.9604 624.79867 627.2177 630.2255 635.2365 637.3964 642.753 647.8659 650.8737 655.81369 660.9561 663.9639 666.383 671.2212 673.57937 675.8257 680.66397 683.0221 685.44119 690.3811 695.4785 698.5888 703.0141 705.4103">Create a 15 min sales pitch, and invite potential clients. </tspan></text>
<text xml:space="preserve" transform="matrix(.75 0 0 .75 0 0)" font-size="8.63967" font-family="F1" font-weight="bold"><tspan y="171.2" x="596.16 601.4037 606.54617 611.5571 613.71707 619.2982 622.4085 627.1586 632.5152 637.45516 639.7015 642.12057 646.54586 648.7922 654.44509 659.558 664.6554 668.2665">The Stage is Yours</tspan></text>
<path transform="matrix(.75,0,0,.75,0,0)" d="M235.36 94.24H236.8V180.32H235.36ZM575.2 95.68H576.64V135.84H575.2ZM948.48 95.68H949.92V180.32H948.48Z" fill-rule="evenodd"/>
<path transform="matrix(.75,0,0,.75,0,0)" d="M235.68 180.32H236.32V193.76H235.68ZM319.04 180.32H319.68V193.76H319.04Z" fill="#808080" fill-rule="evenodd"/>
<path transform="matrix(.75,0,0,.75,0,0)" d="M235.68 193.76H576.16V194.4H235.68Z" fill="#595959"/>
<path transform="matrix(.75,0,0,.75,0,0)" d="M575.52 180.32H576.16V193.76H575.52ZM235.68 194.4H236.32V216H235.68ZM668.48 180.32H669.12V216H668.48ZM948.8 180.32H949.44V216H948.8Z" fill="#808080" fill-rule="evenodd"/>
<path transform="matrix(.75,0,0,.75,0,0)" d="M236.32 327.2H319.68V327.84H236.32Z" fill="#595959"/>
<path transform="matrix(.75,0,0,.75,0,0)" d="M319.68 327.2H575.52V327.84H319.68Z" fill="#d9d9d9"/>
<path transform="matrix(.75,0,0,.75,0,0)" d="M236.32 393.92H668.48V394.56H236.32Z" fill="#595959"/>
<path transform="matrix(.75,0,0,.75,0,0)" d="M668.48 216.64H669.12V393.92H668.48ZM948.8 216.64H949.44V393.92H948.8ZM236.32 416.16H668.48V416.8H236.32Z" fill="#595959" fill-rule="evenodd"/>
<path transform="matrix(.75,0,0,.75,0,0)" d="M668.48 393.92H669.12V416.8H668.48ZM948.8 394.56H949.44V416.8H948.8Z" fill-rule="evenodd"/>
<path transform="matrix(.75,0,0,.75,0,0)" d="M236.32 482.88H319.68V483.52H236.32Z" fill="#595959"/>
<path transform="matrix(.75,0,0,.75,0,0)" d="M319.68 482.88H575.52V483.52H319.68Z" fill="#d9d9d9"/>
<path transform="matrix(.75,0,0,.75,0,0)" d="M235.68 216H236.32V683.68H235.68ZM575.52 194.4H576.16V683.68H575.52ZM948.8 416.8H949.44V683.68H948.8ZM319.04 194.4H319.68V683.68H319.04ZM668.48 416.8H669.12V683.68H668.48Z" fill="#595959" fill-rule="evenodd"/>
<path transform="matrix(.75,0,0,.75,0,0)" d="M236.8 94.24H949.92V95.68H236.8ZM236.8 134.4H949.92V135.84H236.8ZM236.8 178.88H949.92V180.32H236.8Z" fill-rule="evenodd"/>
<path transform="matrix(.75,0,0,.75,0,0)" d="M576.16 193.76H949.44V194.4H576.16Z" fill="#808080"/>
<path transform="matrix(.75,0,0,.75,0,0)" d="M236.32 216H949.44V216.64H236.32ZM236.32 238.24H949.44V238.88H236.32ZM236.32 260.48H949.44V261.12H236.32ZM236.32 282.72H949.44V283.36H236.32ZM236.32 304.96H949.44V305.6H236.32ZM576.16 327.2H949.44V327.84H576.16ZM236.32 349.44H949.44V350.08H236.32ZM236.32 371.68H949.44V372.32H236.32Z" fill="#595959" fill-rule="evenodd"/>
<path transform="matrix(.75,0,0,.75,0,0)" d="M669.12 393.92H949.44V394.56H669.12ZM669.12 416.16H949.44V416.8H669.12Z" fill-rule="evenodd"/>
<path transform="matrix(.75,0,0,.75,0,0)" d="M236.32 438.4H949.44V439.04H236.32ZM236.32 460.64H949.44V461.28H236.32ZM576.16 482.88H949.44V483.52H576.16ZM236.32 505.12H949.44V505.76H236.32ZM236.32 527.36H949.44V528H236.32ZM236.32 549.6H949.44V550.24H236.32ZM236.32 571.84H949.44V572.48H236.32ZM236.32 594.08H949.44V594.72H236.32ZM236.32 616.32H949.44V616.96H236.32ZM236.32 638.56H949.44V639.2H236.32ZM236.32 660.8H949.44V661.44H236.32ZM236.32 683.04H949.44V683.68H236.32Z" fill="#595959" fill-rule="evenodd"/>
</svg>
